<svg xmlns="http://www.w3.org/2000/svg" width="28" height="28" viewBox="0 0 48 48"><path fill="#ce93d8" d="M28 24c0 2.2-1.8 4-4 4s-4-1.8-4-4 1.8-4 4-4 4 1.8 4 4z" style="fill:#3f51b5;fill-opacity:1"/><path fill="#9c27b0" d="M24 1.984c-12.117 0-22.016 9.9-22.016 22.016 0 12.117 9.9 22.016 22.016 22.016 12.117 0 22.016-9.9 22.016-22.016 0-12.117-9.9-22.016-22.016-22.016Zm0 8.032c7.67 0 13.984 7.564 13.984 13.984S31.67 37.984 24 37.984 10.016 30.42 10.016 24 16.33 10.016 24 10.016z" style="fill:#3f51b5;fill-opacity:1;stroke-width:49.8;stroke-dasharray:none"/></svg>