<svg xmlns="http://www.w3.org/2000/svg" width="24" height="24" viewBox="0 0 48 48"><linearGradient id="a" x1="38.525" x2="38.525" y1="484.12" y2="488.529" gradientTransform="scale(1 -1)rotate(-45 -594.445 239.002)" gradientUnits="userSpaceOnUse"><stop offset=".365" stop-color="#199ae0"/><stop offset=".699" stop-color="#1898de"/><stop offset=".819" stop-color="#1691d8"/><stop offset=".905" stop-color="#1186cc"/><stop offset=".974" stop-color="#0a75bc"/><stop offset="1" stop-color="#076cb3"/></linearGradient><path fill="url(#a)" d="m28 29.414 4.293 4.293-3.439 3.439a.5.5 0 0 1-.854-.353v-7.379z"/><linearGradient id="b" x1="30.941" x2="40.953" y1="62.19" y2="-6.639" gradientUnits="userSpaceOnUse"><stop offset="0" stop-color="#32bdef"/><stop offset="1" stop-color="#1ea2e4"/></linearGradient><path fill="url(#b)" d="m41.705 40.297-1.408 1.413a1 1 0 0 1-1.415.001L28.29 31.12c-.18-.19-.29-.44-.29-.71V29c0-.55.45-1 1-1h7.79a.5.5 0 0 1 .36.85l-2.74 2.74 7.294 7.294a1 1 0 0 1 .001 1.413z"/><linearGradient id="c" x1="35.081" x2="30.674" y1="500.026" y2="500.026" gradientTransform="scale(1 -1)rotate(-45 -594.445 239.002)" gradientUnits="userSpaceOnUse"><stop offset=".365" stop-color="#199ae0"/><stop offset=".699" stop-color="#1898de"/><stop offset=".819" stop-color="#1691d8"/><stop offset=".905" stop-color="#1186cc"/><stop offset=".974" stop-color="#0a75bc"/><stop offset="1" stop-color="#076cb3"/></linearGradient><path fill="url(#c)" d="m29.414 20 4.293-4.293 3.439 3.439a.5.5 0 0 1-.353.854h-7.379z"/><linearGradient id="d" x1="29.939" x2="41.381" y1="44.64" y2="-34.016" gradientUnits="userSpaceOnUse"><stop offset="0" stop-color="#32bdef"/><stop offset="1" stop-color="#1ea2e4"/></linearGradient><path fill="url(#d)" d="M41.713 7.713c.391.391.39 1.024 0 1.415L31.12 19.71c-.19.18-.44.29-.71.29H29c-.55 0-1-.45-1-1v-7.79a.5.5 0 0 1 .85-.36l2.74 2.74 7.293-7.293a.999.999 0 0 1 1.414 0l1.416 1.416z"/><linearGradient id="e" x1="35.081" x2="30.674" y1="480.641" y2="480.641" gradientTransform="scale(1 -1)rotate(-45 -594.445 239.002)" gradientUnits="userSpaceOnUse"><stop offset=".365" stop-color="#199ae0"/><stop offset=".699" stop-color="#1898de"/><stop offset=".819" stop-color="#1691d8"/><stop offset=".905" stop-color="#1186cc"/><stop offset=".974" stop-color="#0a75bc"/><stop offset="1" stop-color="#076cb3"/></linearGradient><path fill="url(#e)" d="m20 29.414-4.293 4.293 3.439 3.439a.5.5 0 0 0 .854-.353v-7.379z"/><linearGradient id="f" x1="8.417" x2="19.864" y1="66.521" y2="-12.176" gradientUnits="userSpaceOnUse"><stop offset="0" stop-color="#32bdef"/><stop offset="1" stop-color="#1ea2e4"/></linearGradient><path fill="url(#f)" d="M20 29v1.41c0 .27-.11.52-.29.71L9.127 41.712a1 1 0 0 1-1.415 0l-1.415-1.415a.999.999 0 0 1 0-1.414l7.293-7.293-2.74-2.74a.5.5 0 0 1 .36-.85H19c.55 0 1 .45 1 1z"/><linearGradient id="g" x1="19.14" x2="19.14" y1="484.12" y2="488.529" gradientTransform="scale(1 -1)rotate(-45 -594.445 239.002)" gradientUnits="userSpaceOnUse"><stop offset=".365" stop-color="#199ae0"/><stop offset=".699" stop-color="#1898de"/><stop offset=".819" stop-color="#1691d8"/><stop offset=".905" stop-color="#1186cc"/><stop offset=".974" stop-color="#0a75bc"/><stop offset="1" stop-color="#076cb3"/></linearGradient><path fill="url(#g)" d="m18.586 20-4.293-4.293-3.439 3.439a.5.5 0 0 0 .353.854h7.379z"/><linearGradient id="h" x1="9.355" x2="18.681" y1="38.776" y2="-25.335" gradientUnits="userSpaceOnUse"><stop offset="0" stop-color="#32bdef"/><stop offset="1" stop-color="#1ea2e4"/></linearGradient><path fill="url(#h)" d="M20 11.21V19c0 .55-.45 1-1 1h-1.41c-.27 0-.52-.11-.71-.29L6.296 9.126a1 1 0 0 1-.001-1.413L7.703 6.3a1 1 0 0 1 1.415-.001l7.292 7.292 2.74-2.74a.5.5 0 0 1 .85.359z"/></svg>