<svg xmlns="http://www.w3.org/2000/svg" width="24" height="24" viewBox="0 0 48 48"><path fill="#00acc1" d="M44 24c0 11.044-8.956 20-20 20S4 35.044 4 24 12.956 4 24 4s20 8.956 20 20z"/><path fill="#eee" d="M40 24c0 8.838-7.162 16-16 16S8 32.838 8 24 15.163 8 24 8s16 7.163 16 16z"/><path d="M23 11h2v13h-2z"/><path d="m23.174 24.826 1.653-1.652 6.5 6.5-1.653 1.652z"/><path d="M27 24a3 3 0 1 1-6 0 3 3 0 0 1 6 0"/><path fill="#00acc1" d="M25 24a1.001 1.001 0 0 1-2 0 1 1 0 1 1 2 0"/><text xml:space="preserve" x="25.799" y="43.274" style="font-size:39.9999px;line-height:1.25;font-family:sans-serif;stroke-width:.3;stroke:#00acc1;stroke-opacity:1;stroke-dasharray:none"><tspan x="25.799" y="43.274" style="stroke-width:.3;stroke:#00acc1;stroke-opacity:1;stroke-dasharray:none">a</tspan></text></svg>