<svg xmlns="http://www.w3.org/2000/svg" width="36" height="36" viewBox="0 0 48 48"><path fill="#3F51B5" d="M22.345 20.133s-5.718-3.48-7.03-4.187a3.935 3.935 0 0 1-.49-.303c1.045-.923 1.591-2.633 1.591-3.871A6.045 6.045 0 0 0 10.126 6C5.631 6 4 9.281 4 11.601c0 1.821.689 4.3 3.97 5.761.556.248 1.137.479 1.73.714 2.797 1.106 5.69 2.252 8.18 6.048l4.465-3.991zm-9.889-6.048a2.656 2.656 0 0 1-2.01.916c-1.673 0-3.197-1.346-3.396-2.998a2.776 2.776 0 0 1 .672-2.205 2.896 2.896 0 0 1 2.176-.957c1.721 0 3.109 1.175 3.305 2.795.108.9-.165 1.793-.747 2.449zm31.398 21.888L30.117 25.859l-5.354 3.949L34 36.4c.096.072 2.336 1.662 5.087 1.662h.001c1.502 0 2.864-.41 4.051-1.381.191-.156.715-.708.715-.708z"/><path fill="#03A9F4" d="M43.316 11.229c-1.188-.971-2.549-1.213-4.053-1.213-2.752 0-4.992 1.423-5.068 1.48L18.844 22.23a.797.797 0 0 0-.237.266c-2.627 4.775-5.817 6.04-8.904 7.262a42.9 42.9 0 0 0-1.732.715C4.689 31.934 4 34.412 4 36.232 4 38.551 5.631 42 10.125 42c4.706 0 6.29-4.078 6.29-5.939 0-1.238-.546-2.946-1.591-3.871.093-.069.244-.168.49-.303 1.313-.707 6.798-4.046 7.089-4.228L44 12l-.684-.771zM13.202 36.197c-.195 1.619-1.586 2.795-3.305 2.795-.844 0-1.637-.35-2.176-.956a2.778 2.778 0 0 1-.672-2.205c.199-1.653 1.724-2.997 3.398-2.997.772 0 1.485.324 2.008.915.583.655.856 1.548.747 2.448z"/><path fill="#283593" d="m22.403 27.659-.364.223 2.725 1.929 5.354-3.951-2.595-1.912-5.12 3.711zm.082-5.173a1 1 0 1 0 0 2 1 1 0 1 0 0-2z"/></svg>