<svg xmlns="http://www.w3.org/2000/svg" width="24" height="24" viewBox="0 0 48 48"><path fill="#eee" d="M35.321 12.937H13.793a2.018 2.018 0 0 0-2.018 2.018v17.492c0 1.115.903 2.018 2.018 2.018H35.32a2.018 2.018 0 0 0 2.019-2.018V14.955a2.018 2.018 0 0 0-2.019-2.018z" style="stroke-width:.672768" transform="translate(-.557 .3)"/><path fill="#29b6f6" d="M33.976 16.3H15.138v14.801h18.838z" style="stroke-width:.672768" transform="translate(-.557 .3)"/><path fill="#4fc3f7" d="M33.976 31.101v-11.35a2.46 2.46 0 0 0-.673-.087c-.269 0-.531.054-.78.128a2.771 2.771 0 0 0-.613-.464 2.646 2.646 0 0 0-1.298-.336c-.478 0-.922.12-1.305.343-.41.228-.754.571-.996.975a2.68 2.68 0 0 0-1.736-.646c-.336 0-.652.068-.948.182a2.668 2.668 0 0 0-4.716-.209 2.68 2.68 0 0 0-1.736-.645c-.464 0-.895.127-1.278.336a2.665 2.665 0 0 0-2.759-.922v12.695z" style="stroke-width:.672768" transform="translate(-.557 .3)"/><path fill="#81d4fa" d="M33.976 31.101H15.138v-8.51a2.207 2.207 0 0 1 1.01-.236c.289 0 .571.054.827.155.195.074.37.168.538.29 0 0 .189.194.464.443.25-.7.821-1.25 1.534-1.466.216-.06.438-.094.673-.094.794 0 1.494.397 1.918 1.009a1.981 1.981 0 0 1 1.877-.182 2.646 2.646 0 0 1 1.924-.827c.935 0 1.756.477 2.233 1.197a2.3 2.3 0 0 1 1.467-.525c.66 0 1.251.27 1.682.707.107-.014.222-.034.336-.034.316 0 .62.067.895.175.363-.43.875-.74 1.46-.82z" style="stroke-width:.672768" transform="translate(-.557 .3)"/><path fill="#66bb6a" d="M33.976 31.101h-6.728l3.963-5.664a.912.912 0 0 1 1.493 0l1.272 1.816z" style="stroke-width:.672768" transform="translate(-.557 .3)"/><path fill="#4caf50" d="M31.554 31.101H20.25l4.905-7.01a.912.912 0 0 1 1.493 0z" style="stroke-width:.672768" transform="translate(-.557 .3)"/><path fill="#43a047" d="M26.037 31.101H15.138v-5.96l2.617-3.741a.912.912 0 0 1 1.494 0z" style="stroke-width:.672768" transform="translate(-.557 .3)"/><path fill="#fff176" d="M30.612 18.319a1.346 1.346 0 1 0 0 2.69 1.346 1.346 0 1 0 0-2.69z" style="stroke-width:.672768" transform="translate(-.557 .3)"/><path fill="#546e7a" d="M35.321 13.61c.742 0 1.346.603 1.346 1.345v17.492c0 .742-.604 1.345-1.346 1.345H13.793a1.347 1.347 0 0 1-1.346-1.345V14.955c0-.742.604-1.346 1.346-1.346H35.32m0-1.345H13.793a2.699 2.699 0 0 0-2.691 2.69v17.493a2.699 2.699 0 0 0 2.69 2.69h21.53a2.699 2.699 0 0 0 2.69-2.69V14.955a2.699 2.699 0 0 0-2.69-2.691z" style="stroke-width:.672768" transform="translate(-.557 .3)"/></svg>