<svg xmlns="http://www.w3.org/2000/svg" width="36" height="36" viewBox="0 0 48 48"><g fill="#2196f3"><path d="m45.837 17.875-4.268-7.17-10.86 3.045-2.226-10.135h-8.966l-2.213 10.072-10.762-3.1-4.33 7.142 8.104 6.225-8.153 6.17 4.268 7.17 10.86-3.046 2.226 10.137h8.966l2.213-10.07 10.76 3.098 4.327-7.142-8.101-6.225zM35.204 24c0 5.63-5.014 10.192-11.204 10.192S12.796 29.63 12.796 24 17.81 13.808 24 13.808 35.204 18.37 35.204 24z"/><path d="M39.881 24c0-8.187-7.11-14.825-15.881-14.825-8.77 0-15.881 6.638-15.881 14.825S15.229 38.825 24 38.825c8.77 0 15.881-6.638 15.881-14.825zm-7.94 0c0 4.095-3.556 7.413-7.941 7.413S16.06 28.095 16.06 24c0-4.094 3.555-7.413 7.94-7.413s7.94 3.32 7.94 7.413z"/></g><path fill="#3f51b5" d="m41.867 18.99-3.494-5.868-8.888 2.492-1.818-8.292h-7.332l-1.812 8.239-8.806-2.537-3.542 5.843 6.63 5.092-6.672 5.05 3.494 5.867 8.888-2.492 1.818 8.294h7.332l1.812-8.239 8.802 2.535 3.544-5.843-6.629-5.092zM33.17 24c0 4.605-4.108 8.337-9.17 8.337S14.83 28.605 14.83 24c0-4.607 4.108-8.34 9.17-8.34s9.17 3.733 9.17 8.34z"/><path fill="#3f51b5" d="M36.904 24c0-6.653-5.777-12.046-12.904-12.046S11.096 17.347 11.096 24 16.873 36.046 24 36.046 36.904 30.653 36.904 24zm-6.948 0c0 3.073-2.669 5.56-5.956 5.56-3.287 0-5.956-2.487-5.956-5.56 0-3.069 2.669-5.56 5.956-5.56 3.287 0 5.956 2.491 5.956 5.56z"/></svg>