<svg xmlns="http://www.w3.org/2000/svg" width="24" height="24" viewBox="0 0 48 48"><path fill="#eee" d="M34 42H14c-4.411 0-8-3.589-8-8V14c0-4.411 3.589-8 8-8h20c4.411 0 8 3.589 8 8v20c0 4.411-3.589 8-8 8z"/><path fill="#1de9b6" d="M33 23H14a3 3 0 0 1-3-3v-3.326a2.999 2.999 0 0 1 2.656-2.98l18.885-2.179c2.376-.275 4.459.582 4.459 2.973V20c0 2.207-2.343 3-4 3z" style="fill:#353535;fill-opacity:1"/><path fill="#e57373" d="M13 25h6a2 2 0 0 1 2 2v5.907a2 2 0 0 1-2.228 1.987l-6-.69A2 2 0 0 1 11 32.217V27a2 2 0 0 1 2-2z" style="fill:#353535;fill-opacity:1"/><path fill="#ffd54f" d="M24.5 25h3a1.5 1.5 0 0 1 1.5 1.5v1.675a1.5 1.5 0 0 1-1.582 1.498l-3-.165A1.5 1.5 0 0 1 23 28.01V26.5a1.5 1.5 0 0 1 1.5-1.5z" style="fill:#353535;fill-opacity:1"/><path fill="#212121" d="m24.58 31.024 3 .16A1.5 1.5 0 0 1 29 32.682v1.713a1.5 1.5 0 0 1-1.674 1.49l-3-.35A1.5 1.5 0 0 1 23 34.045v-1.523a1.5 1.5 0 0 1 1.58-1.498z" style="fill:#353535;fill-opacity:1"/><path fill="#40c4ff" d="M37 26.462v2.054c0 .936-1.033 1.48-1.891 1.435l-2.689-.132c-.796-.041-1.42-.682-1.42-1.459v-1.898c0-.808.672-1.462 1.5-1.462h2.609c.828 0 1.891.4 1.891 1.462z" style="fill:#353535;fill-opacity:1"/><path fill="#b388ff" d="m32.582 31.457 2.648.146c.796.043 1.77.533 1.77 1.517v2.198c0 1.074-1.108 1.555-1.999 1.453l-2.672-.307A1.501 1.501 0 0 1 31 34.973v-2.018a1.5 1.5 0 0 1 1.582-1.498z" style="fill:#353535;fill-opacity:1"/></svg>