<svg xmlns="http://www.w3.org/2000/svg" width="28" height="28" baseProfile="basic" viewBox="0 0 64 64"><radialGradient id="a" cx="32" cy="330.5" r="29.251" gradientTransform="matrix(1 0 0 -1 0 362)" gradientUnits="userSpaceOnUse"><stop offset="0" stop-color="#efdcb1"/><stop offset="0" stop-color="#efdcb1"/><stop offset=".092" stop-color="#f2e0b9"/><stop offset=".415" stop-color="#f9eccf"/><stop offset=".724" stop-color="#fdf4dc"/><stop offset="1" stop-color="#fff6e1"/></radialGradient><path fill="url(#a)" d="M54.764 32H52a3 3 0 0 1-2.996-3.161C49.089 27.216 50.545 26 52.17 26h4.33c2.627 0 4.747-2.282 4.477-4.962C60.741 18.704 58.634 17 56.288 17h-7.181c-.996 0-1.92-.681-2.08-1.664A2.002 2.002 0 0 1 49 13h.264c2.873 0 5.438-2.1 5.71-4.96A5.5 5.5 0 0 0 49.5 2h-35c-3.211 0-5.802 2.789-5.471 6.064.288 2.854 2.862 4.936 5.73 4.936H16a3 3 0 0 1 2.996 3.161C18.911 17.784 17.455 19 15.83 19H8.5c-3.211 0-5.803 2.789-5.471 6.064C3.317 27.918 5.891 30 8.759 30H12a2.002 2.002 0 0 1 1.973 2.336c-.16.983-1.084 1.664-2.08 1.664H8.5c-2.627 0-4.747 2.282-4.477 4.962C4.259 41.296 6.366 43 8.712 43H17a4 4 0 0 1 0 8h-5.764c-2.607 0-4.947 1.893-5.21 4.487C5.725 58.465 8.081 61 11 61h40.775c3.046 0 5.772-2.174 6.172-5.193C58.43 52.152 55.565 49 52 49h-4.5a3.5 3.5 0 1 1 0-7H55c2.919 0 5.275-2.535 4.974-5.513-.262-2.594-2.602-4.487-5.21-4.487z"/><linearGradient id="b" x1="33.91" x2="33.91" y1="52.734" y2="9.127" gradientUnits="userSpaceOnUse"><stop offset="0" stop-color="#ff634d"/><stop offset=".204" stop-color="#fe6464"/><stop offset=".521" stop-color="#fc6581"/><stop offset=".794" stop-color="#fa6694"/><stop offset=".989" stop-color="#fa669a"/><stop offset="1" stop-color="#fa669a"/></linearGradient><path fill="url(#b)" d="M32.811 13.275a5.57 5.57 0 0 1 6.805-3.963 5.57 5.57 0 0 1 3.963 6.804L35.01 48.587a5.569 5.569 0 0 1-10.767-2.842l8.568-32.47z"/></svg>