<svg xmlns="http://www.w3.org/2000/svg" xmlns:xlink="http://www.w3.org/1999/xlink" width="128mm" height="128mm" viewBox="0 0 128 128"><defs><linearGradient id="a" x1="1067.82" x2="778.906" y1="811.704" y2="402.609" gradientTransform="translate(-122.615 3.629)scale(.26458)" gradientUnits="userSpaceOnUse"><stop stop-color="#CD3E70"/><stop offset="1" stop-color="#A534C3"/></linearGradient><linearGradient id="b" x1="1168.32" x2="906.404" y1="336.227" y2="-68.4" gradientTransform="translate(-122.615 3.629)scale(.26458)" gradientUnits="userSpaceOnUse"><stop stop-color="#FBD249"/><stop offset="1" stop-color="#F5A623"/></linearGradient><linearGradient id="c" x1="570" x2="570" y1="956" y2="61" gradientTransform="translate(-122.615 3.629)scale(.26458)" gradientUnits="userSpaceOnUse"><stop stop-color="#963CD7"/><stop offset="1" stop-color="#0482D7"/></linearGradient><linearGradient id="d" x1="290.656" x2="102.289" y1="691.66" y2="748.77" gradientTransform="translate(-122.615 3.629)scale(.26458)" gradientUnits="userSpaceOnUse"><stop stop-color="#1FBE84"/><stop offset="1" stop-color="#0082D5"/></linearGradient><linearGradient xlink:href="#a" id="e" x1="1067.82" x2="778.906" y1="811.704" y2="402.609" gradientTransform="translate(-122.615 3.629)scale(.26458)" gradientUnits="userSpaceOnUse"/><linearGradient xlink:href="#b" id="f" x1="1168.32" x2="906.404" y1="336.227" y2="-68.4" gradientTransform="translate(-122.615 3.629)scale(.26458)" gradientUnits="userSpaceOnUse"/><linearGradient xlink:href="#c" id="g" x1="570" x2="570" y1="956" y2="61" gradientTransform="translate(-122.615 3.629)scale(.26458)" gradientUnits="userSpaceOnUse"/><linearGradient xlink:href="#d" id="h" x1="290.656" x2="102.289" y1="691.66" y2="748.77" gradientTransform="translate(-122.615 3.629)scale(.26458)" gradientUnits="userSpaceOnUse"/></defs><path d="M-261.184-5.717c36.789-.067 72.913 18.29 94.67 47.875 16.376 21.693 24.51 49.11 23.47 76.192v113.856h-237.24c-.325-35.764 18.594-70.869 48.545-90.456 16.165-10.794 35.29-17.086 54.712-18.02l.014-20.822c-34.482.26-68.963.52-103.445.778 2.702-39.051 26.432-75.707 60.788-94.485 17.774-9.923 38.132-15.07 58.486-14.918z" style="opacity:1;fill:#fff;fill-opacity:1;stroke:#fff;stroke-width:12.0523;stroke-miterlimit:4;stroke-dasharray:none;stroke-opacity:1;stop-opacity:1" transform="matrix(.51202 0 0 .5123 198.11 6.017)"/><g fill-rule="evenodd" clip-rule="evenodd"><path fill="url(#a)" d="M27.932 256.57h102.923c-.07-57.926-45.707-105.176-102.992-107.832Z" style="opacity:1;fill:url(#e);stroke-width:.264583;stop-opacity:1" transform="matrix(-.51466 0 0 .51412 70.443 -6.85)"/><path fill="url(#b)" d="M-104.367 126.731C-98.738 66.727-48.23 19.768 13.248 19.768c62.081 0 112.978 47.887 117.768 108.736z" style="opacity:1;fill:url(#f);stroke-width:.264583;stop-opacity:1" transform="matrix(-.51466 0 0 .51412 70.443 -6.85)"/><path fill="url(#c)" d="M28.197 256.57h-133.085V137.903c0-65.244 52.89-118.135 118.136-118.135 5.011 0 9.95.312 14.796.918z" style="opacity:1;fill:url(#g);stroke-width:.264583;stop-opacity:1" transform="matrix(-.51466 0 0 .51412 70.443 -6.85)"/><path fill="url(#d)" d="M3.062 256.57h-107.95V148.62c59.587.072 107.878 48.363 107.95 107.95z" style="opacity:1;fill:url(#h);stroke-width:.264583;stop-opacity:1" transform="matrix(-.51466 0 0 .51412 70.443 -6.85)"/><path fill="#302b41" d="M-24.852 91.47c7.38 0 13.362-5.982 13.362-13.361 0-7.38-5.983-13.362-13.362-13.362-7.38 0-13.361 5.983-13.361 13.362 0 7.379 5.982 13.361 13.361 13.361z" style="opacity:1;stroke-width:.264583;stop-opacity:1" transform="matrix(-.51466 0 0 .51412 70.443 -6.85)"/><path fill="#fafafa" d="M-24.852 84.591a6.482 6.482 0 1 0 0-12.964 6.482 6.482 0 0 0 0 12.964z" style="opacity:1;stroke-width:.264583;stop-opacity:1" transform="matrix(-.51466 0 0 .51412 70.443 -6.85)"/></g></svg>