<?xml version="1.0" encoding="UTF-8" standalone="no"?>
<svg
   width="24"
   height="24"
   viewBox="0 0 48 48"
   version="1.1"
   id="svg3"
   sodipodi:docname="newline.svg"
   inkscape:version="1.3.2 (091e20ef0f, 2023-11-25, custom)"
   xmlns:inkscape="http://www.inkscape.org/namespaces/inkscape"
   xmlns:sodipodi="http://sodipodi.sourceforge.net/DTD/sodipodi-0.dtd"
   xmlns="http://www.w3.org/2000/svg"
   xmlns:svg="http://www.w3.org/2000/svg">
  <defs
     id="defs3" />
  <sodipodi:namedview
     id="namedview3"
     pagecolor="#ffffff"
     bordercolor="#666666"
     borderopacity="1.0"
     inkscape:showpageshadow="2"
     inkscape:pageopacity="0.0"
     inkscape:pagecheckerboard="0"
     inkscape:deskcolor="#d1d1d1"
     inkscape:zoom="55.458333"
     inkscape:cx="12"
     inkscape:cy="12"
     inkscape:window-width="1444"
     inkscape:window-height="1243"
     inkscape:window-x="3274"
     inkscape:window-y="166"
     inkscape:window-maximized="0"
     inkscape:current-layer="svg3" />
  <path
     fill="#90A4AE"
     d="M6 34v5a3 3 0 0 0 3 3h30a3 3 0 0 0 3-3v-5H6z"
     id="path1" />
  <path
     fill="#CFD8DC"
     d="M39 6H23a3 3 0 0 0-3 3v7a3 3 0 0 1-3 3H9a3 3 0 0 0-3 3v12a3 3 0 0 0 3 3h30a3 3 0 0 0 3-3V9a3 3 0 0 0-3-3z"
     id="path2" />
  <path
     fill="#F50057"
     d="M30 15v11h-5v-3l-5 4 5 4v-3h7V15z"
     id="path3"
     style="fill:#2196f3;fill-opacity:1" />
</svg>
