<svg xmlns="http://www.w3.org/2000/svg" width="36" height="36" viewBox="0 0 48 48"><path fill="#FFF" d="M5.93 25.041S13.99 14 23.934 14 41.93 25.041 41.93 25.041 33.879 36 23.934 36 5.93 25.041 5.93 25.041z"/><path fill="#CFD8DC" d="M23.934 14c9.945 0 17.996 11.041 17.996 11.041S33.879 36 23.934 36 5.93 25.041 5.93 25.041 13.989 14 23.934 14m0-2C13.098 12 4.668 23.377 4.314 23.862l-.864 1.184.868 1.18C4.672 26.707 13.102 38 23.934 38c10.833 0 19.254-11.294 19.607-11.774l.867-1.18-.862-1.183C43.192 23.378 34.771 12 23.934 12z"/><path fill="#00ACC1" d="M14.935 24.994c0-4.971 4.034-8.994 9-8.994 4.968 0 9 4.023 9 8.994 0 4.977-4.032 9.006-9 9.006-4.967 0-9-4.029-9-9.006z"/><path fill="#006064" d="M19.935 24.999a3.994 3.994 0 0 1 4-3.999 4 4 0 1 1 0 8 3.99 3.99 0 0 1-4-4.001z"/><path fill="#90A4AE" d="M5.959 25c.524-.7 8.369-10.96 17.975-10.96 9.605 0 17.442 10.259 17.966 10.959l4.957.001-1.699-2.322c-.379-.517-9.387-12.638-21.224-12.638S3.081 22.16 2.703 22.676L1 25h4.959z"/></svg>