<svg xmlns="http://www.w3.org/2000/svg" width="36" height="36" viewBox="0 0 50 50"><path fill="#673AB7" d="M44 41h-6l-3 5-7.111-13.333a13 13 0 0 0 8.033-5.632L36 27l8 14zM14.078 27.035 14 27 6 41h6l3 5 7.111-13.333a13.006 13.006 0 0 1-8.033-5.632z" style="fill:#2196f3;fill-opacity:1"/><path fill="#FFAB00" d="M41 20c0 8.836-7.164 16-16 16S9 28.836 9 20 16.164 4 25 4s16 7.164 16 16"/><path fill="#4527A0" d="m30.307 37.2-.966-1.812a16.004 16.004 0 0 0 8.272-5.566l1.06 1.855a18.046 18.046 0 0 1-8.366 5.523zm-10.614 0 .966-1.812a16.004 16.004 0 0 1-8.272-5.566l-1.06 1.855a18.046 18.046 0 0 0 8.366 5.523z" style="fill:#095fa4;fill-opacity:1"/><path fill="#FFCC80" d="M25 7c-7.18 0-13 5.82-13 13s5.82 13 13 13 13-5.82 13-13S32.18 7 25 7zm9.677 7.767c.343.631.624 1.3.836 1.988l-1.912.589a8.931 8.931 0 0 0-.682-1.624l1.758-.953zm-8.639-5.719-.188 1.992a9.04 9.04 0 0 0-1.764.006l-.201-1.99a11.142 11.142 0 0 1 2.153-.008zM22 18.327v-1.786L25.815 15H26v10h-2v-7.349l-2 .676zm-4.002-6.812 1.274 1.542a9.127 9.127 0 0 0-1.244 1.25l-1.548-1.266c.455-.555.965-1.069 1.518-1.526zm-2.712 3.319 1.765.941a8.946 8.946 0 0 0-.671 1.627l-1.915-.575c.206-.688.483-1.358.821-1.993zM14 20.001c0-.359.017-.711.05-1.06l1.991.189a9.283 9.283 0 0 0 .003 1.767l-1.99.196A11.23 11.23 0 0 1 14 20.001zm1.303 5.196a10.924 10.924 0 0 1-.828-1.991l1.914-.581c.17.561.397 1.108.676 1.626l-1.762.946zm2.723 3.311a11.064 11.064 0 0 1-1.523-1.522l1.545-1.27c.373.454.792.873 1.247 1.246l-1.269 1.546zm3.747-19.027.586 1.912a8.933 8.933 0 0 0-1.625.68l-.949-1.761c.632-.34 1.301-.62 1.988-.831zm.035 21.048a10.908 10.908 0 0 1-1.992-.826l.945-1.762a9.002 9.002 0 0 0 1.626.674l-.579 1.914zM25 31c-.364 0-.723-.018-1.078-.052l.192-1.99a9.21 9.21 0 0 0 1.765 0l.193 1.99c-.352.034-.71.052-1.072.052zm3.153-21.541c.688.205 1.358.48 1.994.817l-.936 1.768a8.988 8.988 0 0 0-1.631-.668l.573-1.917zm.034 21.071-.578-1.914a9 9 0 0 0 1.627-.673l.941 1.764c-.635.34-1.305.616-1.99.823zm3.755-19.063c.556.453 1.07.963 1.528 1.516l-1.539 1.276a9.134 9.134 0 0 0-1.253-1.242l1.264-1.55zm.027 17.044-1.27-1.545a9.207 9.207 0 0 0 1.25-1.247l1.543 1.271a11.113 11.113 0 0 1-1.523 1.521zm2.724-3.308-1.762-.947a8.94 8.94 0 0 0 .678-1.626l1.914.583a10.94 10.94 0 0 1-.83 1.99zm-.737-4.302a9.245 9.245 0 0 0 0-1.802l1.99-.195a11.313 11.313 0 0 1 0 2.193l-1.99-.196z"/></svg>
