<svg xmlns="http://www.w3.org/2000/svg" width="48" height="48" viewBox="0 0 48 48"><linearGradient id="a" x1="25.442" x2="8.643" y1="19.5" y2="19.5" gradientUnits="userSpaceOnUse"><stop offset="0" stop-color="#007ccf"/><stop offset=".317" stop-color="#0074c7"/><stop offset=".818" stop-color="#005eb0"/><stop offset="1" stop-color="#0055a6"/></linearGradient><path fill="url(#a)" d="M23 12h1a1 1 0 0 0 1-1V7a1 1 0 0 0-1-1h-1C14.163 6 7 13.163 7 22v11h6V22c0-5.523 4.477-10 10-10z"/><linearGradient id="b" x1="9.791" x2="20.131" y1="7.024" y2="56.354" gradientUnits="userSpaceOnUse"><stop offset="0" stop-color="#32bdef"/><stop offset="1" stop-color="#1ea2e4"/></linearGradient><path fill="url(#b)" d="M23 6C14.163 6 7 13.163 7 22v11H2.81c-.72 0-1.08.87-.571 1.379L8.94 41.08a1.5 1.5 0 0 0 2.121 0l6.701-6.701c.509-.509.148-1.379-.572-1.379H13V17C13 7 23 6 23 6z"/><linearGradient id="c" x1="26.442" x2="9.643" y1="19.5" y2="19.5" gradientTransform="rotate(180 24 24)" gradientUnits="userSpaceOnUse"><stop offset="0" stop-color="#007ccf"/><stop offset=".317" stop-color="#0074c7"/><stop offset=".818" stop-color="#005eb0"/><stop offset="1" stop-color="#0055a6"/></linearGradient><path fill="url(#c)" d="M24 36h-1a1 1 0 0 0-1 1v4a1 1 0 0 0 1 1h1c8.837 0 16-7.163 16-16V15h-6v11c0 5.523-4.477 10-10 10z"/><linearGradient id="d" x1="10.791" x2="21.131" y1="7.024" y2="56.354" gradientTransform="rotate(180 24 24)" gradientUnits="userSpaceOnUse"><stop offset="0" stop-color="#32bdef"/><stop offset="1" stop-color="#1ea2e4"/></linearGradient><path fill="url(#d)" d="M24 42c8.837 0 16-7.163 16-16V15h4.19c.72 0 1.08-.87.571-1.379l-6.7-6.701a1.5 1.5 0 0 0-2.121 0l-6.701 6.701A.807.807 0 0 0 29.81 15H34v16c0 10-10 11-10 11z"/></svg>