<svg xmlns="http://www.w3.org/2000/svg" width="24" height="24" viewBox="0 0 48 48"><linearGradient id="a" x1="222.582" x2="218.175" y1="59.087" y2="59.087" gradientTransform="scale(1 -1)rotate(-45 45.728 239.002)" gradientUnits="userSpaceOnUse"><stop offset=".365" stop-color="#199ae0"/><stop offset=".699" stop-color="#1898de"/><stop offset=".819" stop-color="#1691d8"/><stop offset=".905" stop-color="#1186cc"/><stop offset=".974" stop-color="#0a75bc"/><stop offset="1" stop-color="#076cb3"/></linearGradient><path fill="url(#a)" d="m42 7.414-4.293 4.293 3.439 3.439a.5.5 0 0 0 .854-.353V7.414z"/><linearGradient id="b" x1="222.579" x2="218.172" y1="16.25" y2="16.25" gradientTransform="scale(1 -1)rotate(-45 45.728 239.002)" gradientUnits="userSpaceOnUse"><stop offset=".365" stop-color="#199ae0"/><stop offset=".699" stop-color="#1898de"/><stop offset=".819" stop-color="#1691d8"/><stop offset=".905" stop-color="#1186cc"/><stop offset=".974" stop-color="#0a75bc"/><stop offset="1" stop-color="#076cb3"/></linearGradient><path fill="url(#b)" d="m7.414 41.996 4.293-4.293 3.439 3.439a.5.5 0 0 1-.354.854H7.414z"/><linearGradient id="c" x1="11.444" x2="41.569" y1="107.142" y2="-99.959" gradientUnits="userSpaceOnUse"><stop offset="0" stop-color="#32bdef"/><stop offset="1" stop-color="#1ea2e4"/></linearGradient><path fill="url(#c)" d="M41 6h-7.79a.5.5 0 0 0-.36.85l2.74 2.74-26 25.996-2.74-2.74a.5.5 0 0 0-.85.36v7.79c0 .55.45 1 1 1h1.41c.27 0 .52-.11.71-.29L41.71 9.12c.18-.19.29-.44.29-.71V7c0-.55-.45-1-1-1z"/></svg>