<svg xmlns="http://www.w3.org/2000/svg" width="36" height="36" viewBox="0 0 48 48"><path fill="#7986cb" d="M24 8C13.5 8 5 16.5 5 27c0 4.6 1.6 8.7 4.3 12l1.5-3h26.5l1.5 3c2.7-3.3 4.3-7.4 4.3-12C43 16.5 34.5 8 24 8z"/><path fill="#eceff1" d="M40 27c0-8.8-7.2-16-16-16S8 18.2 8 27c0 3.3 1 6.4 2.8 9l-1.5 3h29.5l-1.5-3c1.7-2.6 2.7-5.7 2.7-9z"/><path fill="#455a64" d="M8 26v2h4c0-.3-.1-.7-.1-1s0-.7.1-1H8zm6.2 7.9c-.4-.5-.7-1.1-1-1.7l-3.4 2.1c.3.6.6 1.2 1 1.7l3.4-2.1zm2.7-16.6c.5-.4 1.1-.7 1.7-1l-2-3.5c-.6.3-1.2.7-1.7 1l2 3.5zm-3.8 4.6c.3-.6.6-1.2 1-1.7l-3.4-2.1c-.4.6-.7 1.2-1 1.8l3.4 2zM25 15.1v-4h-2v4.1c.3 0 .7-.1 1-.1s.7-.1 1 0zM33.8 34l3.5 2c.4-.6.7-1.2 1-1.8l-3.5-2c-.3.7-.7 1.3-1 1.8zm6.2-6v-2h-4c0 .3.1.7.1 1s0 .7-.1 1h4zm-7.2-14.4c-.6-.4-1.2-.7-1.8-1l-2 3.5c.6.3 1.2.6 1.7 1l2.1-3.5z"/><path fill="#90a4ae" d="M20 32h8v2h-8v-2z"/><path fill="#ff1744" d="m23.536 26.111 12.008-7 1.007 1.727-12.008 7.001z"/><path fill="#ff1744" d="M23.9 23.9c1.6 0 2.9 1.3 2.9 2.9 0 1.6-1.3 2.9-2.9 2.9-1.6 0-2.9-1.3-2.9-2.9-.1-1.6 1.3-2.9 2.9-2.9z"/></svg>