<svg xmlns="http://www.w3.org/2000/svg" width="48" height="48"><path fill="#06c" d="M20.092 27h-3.117a.834.834 0 0 1-.795-.581l-1.237-3.869H7.83l-1.224 3.866A.835.835 0 0 1 5.81 27H2.732a.834.834 0 0 1-.784-1.12L8.581 7.658A1 1 0 0 1 9.521 7h3.936a1 1 0 0 1 .942.665l6.48 18.221A.835.835 0 0 1 20.092 27zm-6.181-7.908-2.148-6.722c-.158-.502-.27-1.102-.335-1.799h-.112a7.59 7.59 0 0 1-.349 1.743l-2.176 6.778h5.12zM23.629 26V8a1 1 0 0 1 1-1h6.28c2.232 0 3.947.409 5.146 1.227 1.199.818 1.799 1.971 1.799 3.459 0 1.079-.365 2.022-1.095 2.831-.73.809-1.662 1.371-2.796 1.688v.056c1.423.177 2.559.702 3.41 1.576.851.874 1.276 1.939 1.276 3.194 0 1.832-.656 3.285-1.967 4.358-1.31 1.074-3.1 1.611-5.369 1.611h-6.685a1 1 0 0 1-.999-1zm4.504-15.681v4.742h1.98c.93 0 1.662-.225 2.197-.676.535-.451.802-1.072.802-1.862 0-1.469-1.097-2.204-3.291-2.204h-1.688zm0 8.09v5.272h2.441c1.041 0 1.857-.242 2.448-.725s.886-1.144.886-1.98c0-.8-.291-1.427-.872-1.883-.581-.456-1.392-.683-2.434-.683h-2.469z"/><linearGradient id="a" x1="33.561" x2="24.326" y1="618.44" y2="627.674" gradientTransform="matrix(1 0 0 -1 0 662)" gradientUnits="userSpaceOnUse"><stop offset=".108" stop-color="#0d7044"/><stop offset=".433" stop-color="#11945a"/></linearGradient><path fill="url(#a)" d="m31.139 44.697-7.836-7.836a1.033 1.033 0 0 1 0-1.462l2.097-2.097a1.033 1.033 0 0 1 1.462 0l7.836 7.836a1.033 1.033 0 0 1 0 1.462l-2.097 2.097a1.035 1.035 0 0 1-1.462 0z"/><linearGradient id="b" x1="-625.231" x2="-603.228" y1="276.238" y2="276.238" gradientTransform="scale(-1 1)rotate(45 -35.914 851.79)" gradientUnits="userSpaceOnUse"><stop offset="0" stop-color="#2ac782"/><stop offset="1" stop-color="#21b876"/></linearGradient><path fill="url(#b)" d="m29.042 41.138 14.097-14.097a1.033 1.033 0 0 1 1.462 0l2.097 2.097a1.033 1.033 0 0 1 0 1.462L32.601 44.697a1.033 1.033 0 0 1-1.462 0L29.042 42.6a1.035 1.035 0 0 1 0-1.462z"/></svg>