<?xml version="1.0" encoding="UTF-8" standalone="no"?>
<svg
   viewBox="0 0 60 60"
   width="24px"
   height="24px"
   version="1.1"
   id="svg2"
   sodipodi:docname="sum.svg"
   inkscape:version="1.3.2 (091e20ef0f, 2023-11-25, custom)"
   xmlns:inkscape="http://www.inkscape.org/namespaces/inkscape"
   xmlns:sodipodi="http://sodipodi.sourceforge.net/DTD/sodipodi-0.dtd"
   xmlns="http://www.w3.org/2000/svg"
   xmlns:svg="http://www.w3.org/2000/svg">
  <defs
     id="defs2" />
  <sodipodi:namedview
     id="namedview2"
     pagecolor="#ffffff"
     bordercolor="#666666"
     borderopacity="1.0"
     inkscape:showpageshadow="2"
     inkscape:pageopacity="0.0"
     inkscape:pagecheckerboard="0"
     inkscape:deskcolor="#d1d1d1"
     inkscape:zoom="57.458333"
     inkscape:cx="11.991298"
     inkscape:cy="12"
     inkscape:window-width="2880"
     inkscape:window-height="1583"
     inkscape:window-x="2880"
     inkscape:window-y="0"
     inkscape:window-maximized="1"
     inkscape:current-layer="svg2" />
  <polygon
     fill="#dc691d"
     points="23,18 33,30 23,42 40,42 40,38 44,38 44,46 13,46 27,30 13,14 44,14 44,22 40,22 40,18 "
     id="polygon1"
     transform="matrix(1.5924933,0,0,1.4863329,-15.385867,-14.589987)"
     style="fill:#2196f3;fill-opacity:1" />
  <path
     fill="#4d007e"
     d="M 54.683838,55.267659 H 5.3165459 c -0.6242574,0 -1.1927775,-0.34037 -1.4507614,-0.872477 C 3.6078006,53.863075 3.7065352,53.241788 4.1173984,52.803319 L 25.495029,30 4.1173984,7.1966806 C 3.7065352,6.7582124 3.6078006,6.135439 3.8657845,5.6048181 4.1237684,5.0741973 4.6922885,4.7323407 5.3165459,4.7323407 H 54.683838 c 0.879057,0 1.592493,0.6643908 1.592493,1.4863329 V 18.109337 c 0,0.821942 -0.713436,1.486333 -1.592493,1.486333 h -6.369973 c -0.879056,0 -1.592493,-0.664391 -1.592493,-1.486333 v -4.458999 h -22.07992 l 13.747995,15.396923 c 0.49208,0.551429 0.49208,1.352563 0,1.903992 L 24.641452,46.349662 h 22.07992 v -4.458999 c 0,-0.821942 0.713437,-1.486333 1.592493,-1.486333 h 6.369973 c 0.879057,0 1.592493,0.664391 1.592493,1.486333 v 11.890663 c 0,0.821942 -0.713436,1.486333 -1.592493,1.486333 z M 8.8264011,52.294993 H 53.091345 v -8.917997 h -3.184987 v 4.458999 c 0,0.821942 -0.713437,1.486333 -1.592493,1.486333 H 21.241479 c -0.617888,0 -1.180038,-0.334425 -1.442799,-0.856128 -0.262761,-0.521703 -0.176767,-1.138531 0.218172,-1.581458 L 35.092986,30 20.016852,13.116745 c -0.394939,-0.444414 -0.480933,-1.061242 -0.218172,-1.581459 0.262761,-0.523189 0.824911,-0.857614 1.442799,-0.857614 h 27.072386 c 0.879056,0 1.592493,0.664391 1.592493,1.486333 v 4.458999 h 3.184987 V 7.7050065 H 8.8264011 L 28.8106,29.021993 c 0.525522,0.560347 0.525522,1.395667 0,1.956014 z"
     id="path1"
     style="stroke-width:1.5385;fill:#42a5f5;fill-opacity:1" />
</svg>
