<svg xmlns="http://www.w3.org/2000/svg" width="24" height="24" viewBox="0 0 60 60"><path fill="#dc691d" d="m23 18 10 12-10 12h17v-4h4v8H13l14-16-14-16h31v8h-4v-4z" style="fill:#2196f3;fill-opacity:1" transform="matrix(1.5925 0 0 1.48633 -15.386 -14.59)"/><path fill="#4d007e" d="M54.684 55.268H5.317c-.625 0-1.193-.34-1.451-.873a1.409 1.409 0 0 1 .251-1.592L25.495 30 4.117 7.197a1.41 1.41 0 0 1-.251-1.592c.258-.53.826-.873 1.45-.873h49.368c.879 0 1.592.665 1.592 1.487v11.89c0 .822-.713 1.487-1.592 1.487h-6.37c-.88 0-1.593-.665-1.593-1.487V13.65h-22.08L38.39 29.047a1.412 1.412 0 0 1 0 1.904L24.641 46.35h22.08v-4.46c0-.821.714-1.486 1.593-1.486h6.37c.879 0 1.592.665 1.592 1.487v11.89c0 .822-.713 1.487-1.592 1.487zM8.826 52.295h44.265v-8.918h-3.185v4.459c0 .822-.713 1.486-1.592 1.486H21.24c-.617 0-1.18-.334-1.442-.856a1.407 1.407 0 0 1 .218-1.581L35.093 30 20.017 13.117a1.408 1.408 0 0 1-.218-1.582c.262-.523.825-.857 1.442-.857h27.073c.879 0 1.592.664 1.592 1.486v4.459h3.185V7.705H8.826l19.985 21.317a1.41 1.41 0 0 1 0 1.956z" style="stroke-width:1.5385;fill:#42a5f5;fill-opacity:1"/></svg>