<?xml version="1.0" encoding="UTF-8" standalone="no"?>
<svg
   xml:space="preserve"
   width="48"
   height="48"
   viewBox="0 0 48 48"
   version="1.1"
   id="svg21"
   sodipodi:docname="syncr.svg"
   inkscape:version="1.3.2 (091e20ef0f, 2023-11-25, custom)"
   xmlns:inkscape="http://www.inkscape.org/namespaces/inkscape"
   xmlns:sodipodi="http://sodipodi.sourceforge.net/DTD/sodipodi-0.dtd"
   xmlns="http://www.w3.org/2000/svg"
   xmlns:svg="http://www.w3.org/2000/svg"><defs
     id="defs21" /><sodipodi:namedview
     id="namedview21"
     pagecolor="#ffffff"
     bordercolor="#666666"
     borderopacity="1.0"
     inkscape:showpageshadow="2"
     inkscape:pageopacity="0.0"
     inkscape:pagecheckerboard="0"
     inkscape:deskcolor="#d1d1d1"
     inkscape:zoom="19.607482"
     inkscape:cx="13.132742"
     inkscape:cy="23.995942"
     inkscape:window-width="1889"
     inkscape:window-height="1243"
     inkscape:window-x="3401"
     inkscape:window-y="109"
     inkscape:window-maximized="0"
     inkscape:current-layer="svg21" /><path
     fill="#3f51b5"
     d="m 47.054011,21.583 -8,10.74 -8,-10.74 h 4.9 V 4.878 h 6 v 16.705 z"
     style="stroke-width:1.09235;fill:#5771ff;fill-opacity:1"
     id="path1-3" /><path
     d="M.992 33.125h46.173v8.317H.992z"
     style="fill:#001930;fill-opacity:1;stroke-width:.457364"
     id="path2" /><path
     d="M32.093 58.348v5.344h1.713v-5.344h-1.713m3.426 0v5.344h1.766v-5.344h-1.766m3.48 0v5.344h3.478v-5.344z"
     style="fill:#010101;stroke:none"
     transform="matrix(.91769 0 0 1.26758 5.665 -40.123)"
     id="path3" /><path
     d="M30.327 58.348v5.344h1.766v-5.344z"
     style="fill:#019901;stroke:none"
     transform="matrix(.91769 0 0 1.26758 5.665 -40.123)"
     id="path4" /><path
     d="M28.614 58.348v5.344h1.713v-5.344z"
     style="fill:#010101;stroke:none"
     transform="matrix(.91769 0 0 1.26758 5.665 -40.123)"
     id="path5" /><path
     d="M25.135 58.348v5.344h1.766v-5.344z"
     style="fill:#ff6501;stroke:none"
     transform="matrix(.91769 0 0 1.26758 5.665 -40.123)"
     id="path6" /><path
     d="M21.708 58.348v5.344h3.427v-5.344z"
     style="fill:#010101;stroke:none"
     transform="matrix(.91769 0 0 1.26758 5.665 -40.123)"
     id="path7" /><path
     d="M19.943 58.348v5.344h1.765v-5.344z"
     style="fill:#019901;stroke:none"
     transform="matrix(.91769 0 0 1.26758 5.665 -40.123)"
     id="path8" /><path
     d="M16.516 58.348v5.344h3.427v-5.344z"
     style="fill:#010101;stroke:none"
     transform="matrix(.91769 0 0 1.26758 5.665 -40.123)"
     id="path9" /><path
     d="M14.803 58.348v5.344h1.713v-5.344z"
     style="fill:#ff6501;stroke:none"
     transform="matrix(.91769 0 0 1.26758 5.665 -40.123)"
     id="path10" /><path
     d="M11.324 58.348v5.344h1.714v-5.344z"
     style="fill:#010101;stroke:none"
     transform="matrix(.91769 0 0 1.26758 5.665 -40.123)"
     id="path11" /><path
     d="M9.61 58.348v5.344h1.714v-5.344z"
     style="fill:#019901;stroke:none"
     transform="matrix(.91769 0 0 1.26758 5.665 -40.123)"
     id="path12" /><path
     d="M13.035 58.35v5.344h1.767V58.35z"
     style="fill:#02e119;fill-opacity:1;stroke:none;stroke-width:1.01537"
     transform="matrix(.91769 0 0 1.26758 5.665 -40.123)"
     id="path13" /><path
     d="M6.132 58.348v5.344h3.479v-5.344z"
     style="fill:#010101;stroke:none"
     transform="matrix(.91769 0 0 1.26758 5.665 -40.123)"
     id="path14" /><path
     d="M4.347 58.348v5.344h1.785v-5.344z"
     style="fill:#02e119;fill-opacity:1;stroke:none;stroke-width:1.02056"
     transform="matrix(.91769 0 0 1.26758 5.665 -40.123)"
     id="path15" /><path
     d="M-4.252 58.348v5.344h3.478v-5.344h-3.478m5.192 0v5.344h1.713v-5.344z"
     style="fill:#010101;stroke:none"
     transform="matrix(.91769 0 0 1.26758 5.665 -40.123)"
     id="path16" /><path
     d="M-.767 58.347v5.343H.946v-5.343z"
     style="fill:#02e119;fill-opacity:1;stroke:none"
     transform="matrix(.91769 0 0 1.26758 5.665 -40.123)"
     id="path17" /><path
     d="M2.414 58.34v5.344h1.99v-5.343z"
     style="fill:#019933;stroke:none;stroke-width:1.07762"
     transform="matrix(.91769 0 0 1.26758 5.665 -40.123)"
     id="path18" /><path
     d="M26.896 58.343v5.344h1.765v-5.344z"
     style="fill:#02e119;fill-opacity:1;stroke:none"
     transform="matrix(.91769 0 0 1.26758 5.665 -40.123)"
     id="path19" /><path
     d="M33.803 58.35v5.344h1.765v-5.343z"
     style="fill:#019901;stroke:none"
     transform="matrix(.91769 0 0 1.26758 5.665 -40.123)"
     id="path20" /><path
     d="M37.284 58.352v5.344h1.766v-5.344Zm5.196-.011v5.344h1.766V58.34z"
     style="fill:#02e119;fill-opacity:1;stroke:none"
     transform="matrix(.91769 0 0 1.26758 5.665 -40.123)"
     id="path21" /></svg>
