<svg xmlns="http://www.w3.org/2000/svg" width="48" height="48" viewBox="0 0 48 48"><path fill="#90CAF9" d="M31.619 22.104a.812.812 0 0 0-.237-.572l-4.914-4.911a.81.81 0 0 0-1.143 0s-13.78 13.975-15.185 15.38c0 0 .201-.219 0 0h12.016l9.226-9.325a.817.817 0 0 0 .237-.572z"/><path fill="#FF9800" d="M35.102 20.025a.808.808 0 0 1-.572-.238l-6.315-6.315a.81.81 0 0 1 0-1.144s5.687-5.686 5.779-5.78A5.244 5.244 0 0 1 37.727 5a5.24 5.24 0 0 1 3.73 1.545 5.282 5.282 0 0 1 0 7.461c-.1.098-5.783 5.781-5.783 5.781a.812.812 0 0 1-.572.238z"/><path fill="#F57F17" d="M32.916 24.607c-.48 0-.934-.188-1.273-.526l-7.722-7.722a1.79 1.79 0 0 1-.527-1.273c0-.48.188-.934.527-1.273l2.106-2.105c.681-.681 1.865-.681 2.548 0l7.721 7.721a1.803 1.803 0 0 1 0 2.547l-2.104 2.105a1.803 1.803 0 0 1-1.276.526z"/><path fill="#E91E63" d="M10.141 32c-.238.259-.747.766-.943 1-1.061 1.262-1.551 2.197-1.725 3.066-.156.779-.303 1.516-2.235 3.447a6.334 6.334 0 0 1-.236.221l3.25 3.252c.111-.104.201-.189.234-.223 1.933-1.935 2.668-2.08 3.447-2.236 1.168-.233 2.158-.563 4.273-2.678l5.95-5.851L10.141 32z"/></svg>