<svg xmlns="http://www.w3.org/2000/svg" width="24" height="24" viewBox="0 0 48 48"><linearGradient id="a" x1="17" x2="37" y1="653" y2="653" gradientTransform="matrix(1 0 0 -1 0 662)" gradientUnits="userSpaceOnUse"><stop offset="0" stop-color="#eba601"/><stop offset="1" stop-color="#c18310"/></linearGradient><path fill="url(#a)" d="m37 10.21-6.624-6.624a2 2 0 0 0-2.79-.038L17 13.578V15h20v-4.79z"/><linearGradient id="b" x1="11" x2="32" y1="654" y2="654" gradientTransform="matrix(1 0 0 -1 0 662)" gradientUnits="userSpaceOnUse"><stop offset="0" stop-color="#ffd056"/><stop offset=".293" stop-color="#fccb4e"/><stop offset=".719" stop-color="#f5be38"/><stop offset="1" stop-color="#efb423"/></linearGradient><path fill="url(#b)" d="M21.819 1.561a1.916 1.916 0 0 0-2.673-.036L11 9.242V15h21v-3.258L21.819 1.561z"/><linearGradient id="c" x1="18.405" x2="33.814" y1="651.09" y2="618.516" gradientTransform="matrix(1 0 0 -1 0 662)" gradientUnits="userSpaceOnUse"><stop offset="0" stop-color="#32bdef"/><stop offset="1" stop-color="#1ea2e4"/></linearGradient><path fill="url(#c)" d="m39 10-2.835 31.181A2 2 0 0 1 34.174 43H13.826a2 2 0 0 1-1.992-1.819L9 10h30z"/><path fill="#007ad9" d="M40 9H8a1 1 0 0 0 0 2h32a1 1 0 0 0 0-2z"/></svg>