<svg xmlns="http://www.w3.org/2000/svg" width="48" height="48"><linearGradient id="a" x1="10.645" x2="38.25" y1="11.8" y2="36.027" gradientUnits="userSpaceOnUse"><stop offset="0" stop-color="#3bc9f3"/><stop offset=".243" stop-color="#37c3f0"/><stop offset=".584" stop-color="#2ab0e7"/><stop offset=".979" stop-color="#1693d9"/><stop offset="1" stop-color="#1591d8"/></linearGradient><path fill="url(#a)" d="M28 4C12 4 4 18.559 4 28c0 8.182 3 10 5.23 10 4.3 0 6.335-7 9.77-7 1.533 0 3 1.076 3 3 0 2.671-3 2.753-3 6.389C19 41.72 20.37 44 23.332 44 31.792 44 44 34 44 20.5 44 8.145 35 4 28 4zm-2.5 25a2.5 2.5 0 1 1 0-5 2.5 2.5 0 0 1 0 5z"/><radialGradient id="b" cx="15.5" cy="17.5" r="4.5" gradientUnits="userSpaceOnUse"><stop offset="0"/><stop offset="1" stop-opacity="0"/></radialGradient><circle cx="15.5" cy="17.5" r="4.5" fill="url(#b)" opacity=".15"/><radialGradient id="c" cx="10.5" cy="26.5" r="4.5" gradientUnits="userSpaceOnUse"><stop offset="0"/><stop offset="1" stop-opacity="0"/></radialGradient><circle cx="10.5" cy="26.5" r="4.5" fill="url(#c)" opacity=".15"/><radialGradient id="d" cx="13.51" cy="13.722" r="6.873" gradientUnits="userSpaceOnUse"><stop offset="0" stop-color="#fee100"/><stop offset="1" stop-color="#f7a511"/></radialGradient><circle cx="15.5" cy="16.5" r="3.5" fill="url(#d)"/><radialGradient id="e" cx="24.5" cy="12.5" r="4.5" gradientUnits="userSpaceOnUse"><stop offset="0"/><stop offset="1" stop-opacity="0"/></radialGradient><circle cx="24.5" cy="12.5" r="4.5" fill="url(#e)" opacity=".15"/><radialGradient id="f" cx="22.715" cy="8.859" r="6.758" gradientUnits="userSpaceOnUse"><stop offset="0" stop-color="#a6ff6e"/><stop offset="1" stop-color="#29cd2f"/></radialGradient><circle cx="24.5" cy="11.5" r="3.5" fill="url(#f)"/><radialGradient id="g" cx="34.5" cy="14.5" r="4.5" gradientUnits="userSpaceOnUse"><stop offset="0"/><stop offset="1" stop-opacity="0"/></radialGradient><circle cx="34.5" cy="14.5" r="4.5" fill="url(#g)" opacity=".15"/><radialGradient id="h" cx="32.715" cy="10.859" r="6.758" gradientUnits="userSpaceOnUse"><stop offset="0" stop-color="#42a4ff"/><stop offset="1" stop-color="#1645ab"/></radialGradient><circle cx="34.5" cy="13.5" r="3.5" fill="url(#h)"/><radialGradient id="i" cx="37.5" cy="24.5" r="4.5" gradientUnits="userSpaceOnUse"><stop offset="0"/><stop offset="1" stop-opacity="0"/></radialGradient><circle cx="37.5" cy="24.5" r="4.5" fill="url(#i)" opacity=".15"/><radialGradient id="j" cx="35.715" cy="20.859" r="6.758" gradientUnits="userSpaceOnUse"><stop offset="0" stop-color="#986ee0"/><stop offset="1" stop-color="#634796"/></radialGradient><circle cx="37.5" cy="23.5" r="3.5" fill="url(#j)"/><radialGradient id="k" cx="8.46" cy="22.546" r="6.755" gradientUnits="userSpaceOnUse"><stop offset="0" stop-color="#e85182"/><stop offset="1" stop-color="#d03767"/></radialGradient><circle cx="10.5" cy="25.5" r="3.5" fill="url(#k)"/></svg>