<svg xmlns="http://www.w3.org/2000/svg" xml:space="preserve" width="24" height="24" viewBox="0 0 48 48"><path fill="#2196f3" d="M12.35 7.807h2.588v32.386H12.35Zm-5.18 5.398h2.59v21.59H7.17Zm25.892-5.398h2.589v32.386h-2.59zm-5.178 5.398h2.589v21.59h-2.59ZM1.993 18.602h2.589v10.796h-2.59Zm15.534-2.698h2.59v16.192h-2.59zm5.178 5.397h2.59v6.297h-2.59zm15.535-5.397h2.59v16.192h-2.59zm5.178 5.397h2.59v6.297h-2.59Z" style="stroke-width:1.07916"/><path d="M24 2.754 8.36 7.005v4.96L24 7.716l15.64 4.25v-4.96Zm0 42.519L8.36 41.02v-4.96L24 40.312l15.64-4.251v4.96z" style="fill:#b90000;fill-opacity:1;stroke:none;stroke-width:1.1097;stroke-opacity:1" transform="matrix(1.44065 0 0 1.0797 -10.576 -1.927)"/></svg>