<?xml version="1.0" encoding="UTF-8" standalone="no"?>
<svg
   width="46mm"
   height="70mm"
   viewBox="0 0 46 70"
   version="1.1"
   id="svg20"
   sodipodi:docname="wizard.svg"
   inkscape:version="1.3.2 (091e20ef0f, 2023-11-25, custom)"
   xmlns:inkscape="http://www.inkscape.org/namespaces/inkscape"
   xmlns:sodipodi="http://sodipodi.sourceforge.net/DTD/sodipodi-0.dtd"
   xmlns:xlink="http://www.w3.org/1999/xlink"
   xmlns="http://www.w3.org/2000/svg"
   xmlns:svg="http://www.w3.org/2000/svg">
  <sodipodi:namedview
     id="namedview20"
     pagecolor="#ffffff"
     bordercolor="#666666"
     borderopacity="1.0"
     inkscape:showpageshadow="2"
     inkscape:pageopacity="0.0"
     inkscape:pagecheckerboard="0"
     inkscape:deskcolor="#d1d1d1"
     inkscape:document-units="mm"
     inkscape:zoom="1.7095166"
     inkscape:cx="85.989221"
     inkscape:cy="195.66935"
     inkscape:window-width="1444"
     inkscape:window-height="1243"
     inkscape:window-x="960"
     inkscape:window-y="293"
     inkscape:window-maximized="0"
     inkscape:current-layer="svg20" />
  <defs
     id="defs8">
    <linearGradient
       id="a"
       x1="1067.8199"
       x2="778.90601"
       y1="811.70398"
       y2="402.60901"
       gradientTransform="matrix(0.26458,0,0,0.26458,-122.615,3.629)"
       gradientUnits="userSpaceOnUse">
      <stop
         stop-color="#CD3E70"
         id="stop1" />
      <stop
         offset="1"
         stop-color="#A534C3"
         id="stop2" />
    </linearGradient>
    <linearGradient
       id="b"
       x1="1168.3199"
       x2="906.40399"
       y1="336.22699"
       y2="-68.400002"
       gradientTransform="matrix(0.26458,0,0,0.26458,-122.615,3.629)"
       gradientUnits="userSpaceOnUse">
      <stop
         stop-color="#FBD249"
         id="stop3" />
      <stop
         offset="1"
         stop-color="#F5A623"
         id="stop4" />
    </linearGradient>
    <linearGradient
       id="c"
       x1="570"
       x2="570"
       y1="956"
       y2="61"
       gradientTransform="matrix(0.26458,0,0,0.26458,-122.615,3.629)"
       gradientUnits="userSpaceOnUse">
      <stop
         stop-color="#963CD7"
         id="stop5" />
      <stop
         offset="1"
         stop-color="#0482D7"
         id="stop6" />
    </linearGradient>
    <linearGradient
       id="d"
       x1="290.65601"
       x2="102.289"
       y1="691.65997"
       y2="748.77002"
       gradientTransform="matrix(0.26458,0,0,0.26458,-122.615,3.629)"
       gradientUnits="userSpaceOnUse">
      <stop
         stop-color="#1FBE84"
         id="stop7" />
      <stop
         offset="1"
         stop-color="#0082D5"
         id="stop8" />
    </linearGradient>
    <linearGradient
       xlink:href="#a"
       id="e"
       x1="1067.8199"
       x2="778.90601"
       y1="811.70398"
       y2="402.60901"
       gradientTransform="matrix(0.26458,0,0,0.26458,-122.615,3.629)"
       gradientUnits="userSpaceOnUse" />
    <linearGradient
       xlink:href="#b"
       id="f"
       x1="1168.3199"
       x2="906.40399"
       y1="336.22699"
       y2="-68.400002"
       gradientTransform="matrix(0.26458,0,0,0.26458,-122.615,3.629)"
       gradientUnits="userSpaceOnUse" />
    <linearGradient
       xlink:href="#c"
       id="g"
       x1="570"
       x2="570"
       y1="956"
       y2="61"
       gradientTransform="matrix(0.26458,0,0,0.26458,-122.615,3.629)"
       gradientUnits="userSpaceOnUse" />
    <linearGradient
       xlink:href="#d"
       id="h"
       x1="290.65601"
       x2="102.289"
       y1="691.65997"
       y2="748.77002"
       gradientTransform="matrix(0.26458,0,0,0.26458,-122.615,3.629)"
       gradientUnits="userSpaceOnUse" />
  </defs>
  <g
     id="g34"
     transform="matrix(0.35,0,0,0.35,-1.1653616,-1.086138)">
    <path
       id="path34"
       style="opacity:1;fill:#ffffff;fill-opacity:1;stroke-width:0.264583;stop-opacity:1"
       d="M 101.94875,3.116769 C 92.330921,3.5066144 83.325743,8.0078127 75.958671,14.024308 67.48162,20.904178 60.60952,29.567952 54.732903,38.687167 c -5.615804,8.77712 -10.400038,18.129126 -14.228378,27.795315 -0.7044,1.787108 -1.335977,3.601592 -1.932729,5.427256 -2.599464,-0.762675 -5.736397,-0.374552 -7.612379,1.733977 -2.327898,2.460477 -2.522019,6.778056 -0.05577,9.216209 1.070307,1.188016 2.571497,1.816204 4.043145,2.346689 -7.710835,4.460425 -14.480451,10.538164 -19.691245,17.766587 -5.8814839,8.06389 -9.8140786,17.60268 -11.2345363,27.45412 -0.3249823,2.21693 -0.5370869,4.39964 -0.6914062,6.63086 17.7135415,-0.13278 35.4270815,-0.26581 53.1406245,-0.39843 -9.89e-4,2.23502 -0.0067,4.47005 -0.0078,6.70507 -5.840467,0.47998 -11.585173,1.85916 -17.026776,4.10529 -9.040543,3.71768 -17.292634,9.8371 -23.352496,17.52203 -3.344846,4.22844 -6.07502,8.88633 -8.1383051,13.8805 -1.0444639,2.55498 -1.9510006,5.25941 -2.6148045,7.92911 -1.2592923,4.92189 -1.8062624,9.97164 -1.7470894,15.02637 0.014626,0.35143 -0.2425874,1.2175 0.413847,1.04653 41.719009,0.0111 83.43802,0.013 125.157025,0.01 -0.0105,-22.1218 0.0607,-44.24465 -0.0912,-66.3657 -0.54563,-11.08528 -4.17842,-22.11984 -10.36284,-31.44111 -0.57494,-0.67698 -0.56057,-0.97369 0.36571,-0.68195 2.96366,0.6739 6.28237,-0.81835 7.60597,-3.58418 1.37799,-2.617634 0.75983,-6.093641 -1.49737,-8.026788 -1.14949,-1.064123 -2.64432,-1.684939 -4.1785,-1.935431 0.68972,-5.765423 0.3817,-11.60389 -0.24219,-17.316406 -1.30033,-11.030722 -3.76438,-21.874662 -5.84594,-32.771903 -0.75787,-4.322213 -1.63005,-8.646583 -1.86149,-13.036117 -0.0368,-1.584382 0.006,-3.259038 0.58024,-4.735954 0.71737,-0.809641 1.81862,-0.178551 2.64556,0.07631 3.20041,1.277967 5.18632,4.324722 6.67461,7.279979 1.21625,2.202682 3.89543,3.198439 6.29375,2.668339 2.08356,-0.388591 3.92032,-2.03625 4.26536,-4.168566 0.44905,-2.276503 -0.11507,-4.596559 -0.54849,-6.830815 -1.485,-6.017348 -5.71581,-11.258276 -11.18009,-14.1136321 -5.69079,-3.1730573 -12.22845,-4.749434 -18.72779,-4.7974746 -0.3668,0.0046 -0.7336,0.00921 -1.1004,0.013813 z" />
    <g
       id="g21"
       transform="translate(2.5196175,1.6401543)">
      <g
         fill-rule="evenodd"
         clip-rule="evenodd"
         id="g14">
        <path
           fill="url(#a)"
           d="M 27.932,256.57 H 130.855 C 130.785,198.644 85.148,151.394 27.863,148.738 Z"
           style="opacity:1;fill:url(#e);stroke-width:0.264583;stop-opacity:1"
           transform="matrix(-0.51466,0,0,0.51412,70.443,67.233)"
           id="path9" />
        <path
           fill="url(#b)"
           d="M -104.367,126.731 C -98.738,66.727 -48.23,19.768 13.248,19.768 c 62.081,0 112.978,47.887 117.768,108.736 z"
           style="opacity:1;fill:url(#f);stroke-width:0.264583;stop-opacity:1"
           transform="matrix(-0.51466,0,0,0.51412,70.443,67.233)"
           id="path10" />
        <path
           fill="url(#c)"
           d="M 28.197,256.57 H -104.888 V 137.903 c 0,-65.244 52.89,-118.135 118.136,-118.135 5.011,0 9.95,0.312 14.796,0.918 z"
           style="opacity:1;fill:url(#g);stroke-width:0.264583;stop-opacity:1"
           transform="matrix(-0.51466,0,0,0.51412,70.443,67.233)"
           id="path11" />
        <path
           fill="url(#d)"
           d="m 3.062,256.57 h -107.95 V 148.62 c 59.587,0.072 107.878,48.363 107.95,107.95 z"
           style="opacity:1;fill:url(#h);stroke-width:0.264583;stop-opacity:1"
           transform="matrix(-0.51466,0,0,0.51412,70.443,67.233)"
           id="path12" />
        <path
           fill="#302b41"
           d="m -24.852,91.47 c 7.38,0 13.362,-5.982 13.362,-13.361 0,-7.38 -5.983,-13.362 -13.362,-13.362 -7.38,0 -13.361,5.983 -13.361,13.362 0,7.379 5.982,13.361 13.361,13.361 z"
           style="opacity:1;stroke-width:0.264583;stop-opacity:1"
           transform="matrix(-0.51466,0,0,0.51412,70.443,67.233)"
           id="path13" />
        <path
           fill="#fafafa"
           d="m -24.852,84.591 a 6.482,6.482 0 1 0 0,-12.964 6.482,6.482 0 0 0 0,12.964 z"
           style="opacity:1;stroke-width:0.264583;stop-opacity:1"
           transform="matrix(-0.51466,0,0,0.51412,70.443,67.233)"
           id="path14" />
      </g>
      <g
         fill="none"
         stroke-linecap="none"
         stroke-linejoin="none"
         stroke-miterlimit="10"
         stroke-width="none"
         font-family="none"
         font-size="none"
         font-weight="none"
         style="mix-blend-mode:normal"
         text-anchor="none"
         id="g20">
        <path
           fill="#345fc2"
           d="m 36.865,74.612 c 3.359,-14.62 32.03,-79.222 71.443,-70.167 16.168,3.714 20.414,13.095 20.637,21.433 0.103,3.853 -5.274,4.93 -6.979,1.437 -1.9,-3.898 -4.796,-7.366 -9.09,-8.353 -13.855,-3.183 8.691,48.173 2.813,73.759 z"
           id="path15" />
        <path
           stroke="#ffffff"
           stroke-linecap="round"
           stroke-linejoin="round"
           stroke-width="3"
           d="m 24.101,18.648 c 1.167,-1.843 2.451,-3.531 3.86,-4.978"
           transform="matrix(1.87677,0.43115,-0.41985,1.82756,37.213,-21.508)"
           id="path16" />
        <path
           fill="#000000"
           d="m 111.998,48.533 c -5.171,0.914 -8.591,5.73 -7.642,10.81 1.273,6.815 2.564,14.778 2.71,21.775 L 82.13,75.389 c -5.182,-1.19 -10.323,1.935 -11.483,6.982 L 115.69,92.72 c 2.724,-11.857 -0.658,-29.25 -3.692,-44.186 z"
           opacity="0.15"
           id="path17" />
        <path
           fill="#ffffff"
           d="m 44.539,54.9 a 9.95,9.95 0 0 0 2.223,0.816 C 50.859,56.657 55.226,54.89 57.319,51.13 67.316,33.158 78.929,20.491 90.021,15.464 A 9.178,9.178 0 0 0 94.978,4.122 c -22.752,4 -40.717,30.71 -50.439,50.778 z"
           opacity="0.3"
           id="path18" />
        <path
           fill="#ffa500"
           d="m 62.386,68.267 -4.969,1.272 c -1.184,0.303 -2.218,-0.864 -1.75,-1.972 l 1.964,-4.66 -2.805,-4.263 c -0.667,-1.015 0.133,-2.332 1.354,-2.23 l 5.131,0.432 3.237,-3.905 c 0.77,-0.93 2.298,-0.578 2.586,0.594 l 1.208,4.926 4.804,1.85 c 1.144,0.44 1.29,1.976 0.245,2.598 l -4.383,2.612 -0.267,5.05 c -0.063,1.202 -1.502,1.8 -2.435,1.01 z m 24.826,-27.004 -4.969,1.27 c -1.184,0.304 -2.218,-0.863 -1.75,-1.971 l 1.964,-4.66 -2.805,-4.263 c -0.667,-1.015 0.133,-2.332 1.354,-2.23 l 5.131,0.432 3.237,-3.905 c 0.77,-0.93 2.298,-0.578 2.586,0.594 l 1.207,4.926 4.805,1.85 c 1.144,0.44 1.29,1.976 0.245,2.598 l -4.383,2.612 -0.267,5.05 c -0.063,1.203 -1.503,1.8 -2.435,1.01 z m 8.508,32.929 c 0.792,0.347 1.6,0.579 2.403,0.706 1.38,0.219 1.555,2.104 0.22,2.484 -2.629,0.749 -5.546,0.72 -8.405,-0.293 -5.83,-2.065 -9.564,-7.921 -8.872,-13.906 0.914,-7.903 8.586,-13 16.326,-11.222 2.329,0.535 4.383,1.63 6.042,3.102 1.028,0.912 0.113,2.587 -1.206,2.18 a 9.925,9.925 0 0 0 -0.689,-0.185 c -5.525,-1.27 -11.004,2.526 -11.347,8.293 -0.22,3.724 2.024,7.307 5.528,8.84 z"
           id="path19" />
        <path
           fill="#345fc2"
           d="M 116.825,100.678 32.37,81.276 c -2.592,-0.596 -4.222,-3.123 -3.642,-5.647 0.58,-2.524 3.15,-4.086 5.742,-3.491 l 84.454,19.402 c 2.592,0.595 4.222,3.123 3.643,5.647 -0.58,2.524 -3.15,4.086 -5.742,3.49 z"
           id="path20" />
      </g>
    </g>
  </g>
</svg>
