<svg xmlns="http://www.w3.org/2000/svg" width="24" height="24" viewBox="0 0 48 48"><path fill="#EA80FC" d="m31.3 8.5 3.1-4.6 1 5.4 5-2.3-2.1 5.2 5.5.8-4.6 3.2 4.2 3.6-5.5.2 1.5 5.3-4.8-2.8-1.6 5.3-2.5-4.9-4.2 3.6.6-5.5-5.5.7 3.5-4.3-5-2.3 5.2-1.8-2.9-4.7 5.3 1.4.1-5.5z"/><path fill="#D500F9" d="m31.6 11.6 1.8-2.7.6 3.2 2.9-1.4-1.2 3.1 3.2.4-2.7 1.9 2.5 2.1-3.3.2.9 3.1-2.8-1.7-.9 3.1-1.5-2.9-2.4 2.2.3-3.3-3.2.5 2-2.6-2.9-1.3 3.1-1.1-1.8-2.7 3.2.8V9.2zM39 35l1.5 3.5L44 40l-3.5 1.5L39 45l-1.5-3.5L34 40l3.5-1.5zm-9-4 .9 2.1 2.1.9-2.1.9L30 37l-.9-2.1L27 34l2.1-.9z"/><path fill="#607D8B" d="M5 44.4 3.6 43c-.8-.8-.8-2 0-2.8l17.7-17.7 4.2 4.2L7.8 44.4c-.8.8-2 .8-2.8 0z"/><path fill="#FFC107" d="m32.9 13.7 1.4 1.4c.8.8.8 2 0 2.8l-8.8 8.8-4.2-4.2 8.8-8.8c.7-.8 2-.8 2.8 0z"/><path fill="#90A4AE" d="m22.189 23.352.99.99L5.5 42.019l-.99-.99z"/><path fill="#FFD54F" d="m30.993 14.65.99.99-8.768 8.768-.99-.99z"/></svg>