<svg xmlns="http://www.w3.org/2000/svg" width="48" height="48"><defs><linearGradient id="c" x1="-1136.6" x2="-1150.9" y1="621.01" y2="635.32" gradientTransform="matrix(1 0 0 -1 1161.6 661.61)" gradientUnits="userSpaceOnUse"><stop offset=".365" stop-color="#199ae0"/><stop offset=".699" stop-color="#1898de"/><stop offset=".819" stop-color="#1691d8"/><stop offset=".905" stop-color="#1186cc"/><stop offset=".974" stop-color="#0a75bc"/><stop offset="1" stop-color="#076cb3"/></linearGradient><linearGradient id="d" x1="-1155.7" x2="-1137.2" y1="634.16" y2="652.59" gradientTransform="matrix(1 0 0 -1 1161.6 661.61)" gradientUnits="userSpaceOnUse"><stop offset="0" stop-color="#32bdef"/><stop offset="1" stop-color="#1ea2e4"/></linearGradient><linearGradient id="a" x1="-1136.6" x2="-1150.9" y1="621.01" y2="635.32" gradientTransform="matrix(1 0 0 -1 1161.6 661.61)" gradientUnits="userSpaceOnUse"><stop offset=".365" stop-color="#199ae0"/><stop offset=".699" stop-color="#1898de"/><stop offset=".819" stop-color="#1691d8"/><stop offset=".905" stop-color="#1186cc"/><stop offset=".974" stop-color="#0a75bc"/><stop offset="1" stop-color="#076cb3"/></linearGradient><linearGradient id="b" x1="-1155.7" x2="-1137.2" y1="634.16" y2="652.59" gradientTransform="matrix(1 0 0 -1 1161.6 661.61)" gradientUnits="userSpaceOnUse"><stop offset="0" stop-color="#32bdef"/><stop offset="1" stop-color="#1ea2e4"/></linearGradient></defs><path fill="url(#a)" d="m4.201 23.099 3.312-3.312a1.98 1.98 0 0 1 2.802 0L25.798 35.27a1.98 1.98 0 0 1 0 2.802l-3.312 3.312a1.98 1.98 0 0 1-2.802 0L4.201 25.901a1.983 1.983 0 0 1 0-2.802z" transform="matrix(.87675 0 0 1 .931 -.5)"/><path fill="url(#b)" d="m7.513 29.213-3.312-3.312a1.98 1.98 0 0 1 0-2.802L19.685 7.616a1.98 1.98 0 0 1 2.802 0l3.312 3.312a1.98 1.98 0 0 1 0 2.802L10.315 29.213a1.983 1.983 0 0 1-2.802 0z" transform="matrix(.87675 0 0 1 .931 -.5)"/><path fill="url(#c)" d="m4.201 23.099 3.312-3.312a1.98 1.98 0 0 1 2.802 0L25.798 35.27a1.98 1.98 0 0 1 0 2.802l-3.312 3.312a1.98 1.98 0 0 1-2.802 0L4.201 25.901a1.983 1.983 0 0 1 0-2.802z" transform="matrix(.87675 0 0 1 20.192 -.5)"/><path fill="url(#d)" d="m7.513 29.213-3.312-3.312a1.98 1.98 0 0 1 0-2.802L19.685 7.616a1.98 1.98 0 0 1 2.802 0l3.312 3.312a1.98 1.98 0 0 1 0 2.802L10.315 29.213a1.983 1.983 0 0 1-2.802 0z" transform="matrix(.87675 0 0 1 20.192 -.5)"/></svg>