<svg xmlns="http://www.w3.org/2000/svg" width="28" height="28" baseProfile="basic" viewBox="0 0 64 64"><radialGradient id="a" cx="-1176.213" cy="32.617" r="19.951" gradientTransform="matrix(-1 0 0 1 -1146 -2)" gradientUnits="userSpaceOnUse"><stop offset="0" stop-color="#f4e9c3"/><stop offset=".219" stop-color="#f8eecd"/><stop offset=".644" stop-color="#fdf4dc"/><stop offset="1" stop-color="#fff6e1"/></radialGradient><path fill="url(#a)" d="M60.002 55a4 4 0 0 0 0 8 4 4 0 0 0 0-8z"/><radialGradient id="b" cx="-1177.501" cy="33.851" r="23.895" gradientTransform="matrix(-1 0 0 1 -1146 -2)" gradientUnits="userSpaceOnUse"><stop offset="0" stop-color="#f4e9c3"/><stop offset=".219" stop-color="#f8eecd"/><stop offset=".644" stop-color="#fdf4dc"/><stop offset="1" stop-color="#fff6e1"/></radialGradient><path fill="url(#b)" d="M19.002 14.5a6.5 6.5 0 0 0-6.5-6.5h-8c-2 0-3.6-1.67-3.5-3.69.1-1.89 1.8-3.31 3.7-3.31h51.8a3.5 3.5 0 0 1 3.5 3.5v.01c0 1.87-1.46 3.39-3.31 3.49-.06.01-.12.01-.18.01l-.51-.01a6 6 0 1 0 0 12h3.12a3.88 3.88 0 0 1 3.88 3.88v.24a3.88 3.88 0 0 1-3.88 3.88h-18.12L41 42h16.502a4.507 4.507 0 0 1 4.48 4.944C61.761 49.283 59.661 51 57.312 51h-9.31a2 2 0 1 0 0 4h1c2.342 0 4.222 2.023 3.979 4.405C52.768 61.484 50.893 63 48.803 63H7.002c-2.342 0-4.222-2.023-3.979-4.405C3.235 56.516 5.11 55 7.2 55h1.802c.16 0 .32-.01.47-.03 3.65-.42 3.16-5.97-.52-5.97h-4.45a4.5 4.5 0 0 1-4.48-4.94c.22-2.34 2.32-4.06 4.67-4.06h.81a5.495 5.495 0 0 0 5.499-5.37c.073-3.096-2.643-5.63-5.74-5.63H4.188c-2.09 0-3.961-1.523-4.165-3.603A3.997 3.997 0 0 1 4.002 21h8.5a6.5 6.5 0 0 0 6.5-6.5z"/><linearGradient id="c" x1="32.5" x2="32.5" y1="310" y2="352.012" gradientTransform="matrix(1 0 0 -1 0 362)" gradientUnits="userSpaceOnUse"><stop offset="0" stop-color="#ff634d"/><stop offset=".204" stop-color="#fe6464"/><stop offset=".521" stop-color="#fc6581"/><stop offset=".794" stop-color="#fa6694"/><stop offset=".989" stop-color="#fa669a"/><stop offset="1" stop-color="#fa669a"/></linearGradient><path fill="url(#c)" d="M15 14.841C15 11.708 16.709 10 19.841 10h15.264c9.113 0 13.84 4.556 13.84 10.764 0 4.385-2.278 7.859-7.575 9.511v.171c5.012.911 8.63 4.215 8.63 9.682C50 47.931 44.559 53 34.82 53H19.841C16.709 53 15 51.292 15 48.159V14.841zM32.538 27c4.091 0 5.673-1.691 5.673-4.527 0-2.837-1.582-4.473-5.673-4.473H26v9h6.538zm.661 18.002c4.022 0 6.001-1.508 6.001-5.084 0-3.352-2.146-4.918-6.001-4.918H26v10.002h7.199z"/></svg>