<svg xmlns="http://www.w3.org/2000/svg" width="24" height="24" viewBox="0 0 48 48"><path fill="#e91e63" d="M24 4v20L14 6.681 24 4z"/><path fill="#ff5722" d="M34 6.681 41.319 14 24 24 34 6.681z"/><path fill="#f44336" d="m24 4 10 2.681L24 24V4z"/><path fill="#8bc34a" d="M24 44V24l10 17.319L24 44z"/><path fill="#03a9f4" d="M14 41.319 6.681 34 24 24 14 41.319z"/><path fill="#4caf50" d="m24 44-10-2.681L24 24v20z"/><path fill="#ff9800" d="M44 24H24l17.319-10L44 24z"/><path fill="#ffeb3b" d="M41.319 34 34 41.319 24 24l17.319 10z"/><path fill="#ffc107" d="m44 24-2.681 10L24 24h20z"/><path fill="#3f51b5" d="M4 24h20L6.681 34 4 24z"/><path fill="#9c27b0" d="M6.681 14 14 6.681 24 24 6.681 14z"/><path fill="#673ab7" d="m4 24 2.681-10L24 24H4z"/></svg>