<?xml version="1.0" encoding="UTF-8" standalone="no"?>
<svg
   width="20"
   height="20"
   viewBox="0 0 4.2333333 4.2333332"
   version="1.1"
   id="svg9"
   sodipodi:docname="crossmobile.svg"
   inkscape:version="1.3.2 (091e20ef0f, 2023-11-25, custom)"
   xmlns:inkscape="http://www.inkscape.org/namespaces/inkscape"
   xmlns:sodipodi="http://sodipodi.sourceforge.net/DTD/sodipodi-0.dtd"
   xmlns="http://www.w3.org/2000/svg"
   xmlns:svg="http://www.w3.org/2000/svg">
  <defs
     id="defs9" />
  <sodipodi:namedview
     id="namedview9"
     pagecolor="#ffffff"
     bordercolor="#666666"
     borderopacity="1.0"
     inkscape:showpageshadow="2"
     inkscape:pageopacity="0.0"
     inkscape:pagecheckerboard="0"
     inkscape:deskcolor="#d1d1d1"
     inkscape:document-units="mm"
     inkscape:zoom="7.7817193"
     inkscape:cx="30.263235"
     inkscape:cy="30.263235"
     inkscape:window-width="1444"
     inkscape:window-height="1243"
     inkscape:window-x="3425"
     inkscape:window-y="193"
     inkscape:window-maximized="0"
     inkscape:current-layer="svg9" />
  <g
     id="g10"
     transform="matrix(0.26458069,0,0,0.26458069,-1.5737411e-5,8.0735512e-5)">
    <path
       d="m 87.376,-46.558 1.248,0.437 1.46,-0.168 c 0,0 0.566,-0.956 1.407,-2.125 l -0.513,-0.59 c -1.048,0.319 -1.003,-0.846 -1.472,-1.16 l 1.475,-0.987 0.653,-0.475 -1.556,-1.956 -1.215,-0.052 -0.378,0.033 -1.162,0.432 -1.782,1.956 -0.566,1.48 0.524,1.529 z"
       style="fill:#ffffff;fill-opacity:1;fill-rule:evenodd;stroke:none;stroke-width:0.0235777;stroke-linecap:butt;stroke-linejoin:miter;stroke-miterlimit:4;stroke-dasharray:none;stroke-opacity:1"
       transform="matrix(1.58043,0,0,1.5768,-131.861,88.44)"
       id="path1" />
    <g
       style="stroke:#8dc63f;stroke-width:2.63528;stroke-miterlimit:4;stroke-dasharray:none;stroke-opacity:1"
       id="g2">
      <path
         d="m 0,0 c -4.768,4.595 -8.668,8.472 -8.668,8.614 0,0.391 4.123,4.412 4.524,4.412 0.403,0 17.757,-16.59 17.757,-16.975 0,-0.407 -4.135,-4.405 -4.558,-4.405 C 8.843,-8.354 4.769,-4.595 0,0"
         style="fill:#8cc73f;fill-opacity:1;fill-rule:nonzero;stroke:#8dc63f;stroke-width:2.63528;stroke-miterlimit:4;stroke-dasharray:none;stroke-opacity:1"
         transform="matrix(0.14844,0,0,-0.14831,5.732,2.127)"
         id="path2" />
    </g>
    <g
       style="stroke:#8dc63f;stroke-width:3.2941;stroke-miterlimit:4;stroke-dasharray:none;stroke-opacity:1"
       id="g3">
      <path
         d="m 0,0 c -3.25,3.254 -5.908,6.003 -5.908,6.111 0,0.289 4.09,4.414 4.376,4.414 0.132,0 3.361,-3.121 7.173,-6.935 l 6.933,-6.936 -0.069,-1.222 -0.07,-1.225 -3.264,-0.06 -3.262,-0.06 z"
         style="fill:#8cc73f;fill-opacity:1;fill-rule:nonzero;stroke:#8dc63f;stroke-width:3.2941;stroke-miterlimit:4;stroke-dasharray:none;stroke-opacity:1"
         transform="matrix(0.13521,0,0,-0.1351,5.685,8.745)"
         id="path3" />
    </g>
    <g
       style="stroke:#00b9f2;stroke-width:2.63528;stroke-miterlimit:4;stroke-dasharray:none;stroke-opacity:1"
       id="g4">
      <path
         d="m 0,0 0.035,-16.667 10.627,-11.09 c 5.846,-6.1 10.933,-11.278 11.303,-11.508 0.372,-0.23 1.076,-0.836 1.565,-1.344 l 0.889,-0.928 16.549,0.042 0.058,6.223 -13.837,0.038 -2.357,2.307 c -1.297,1.269 -5.941,6.026 -10.321,10.574 L 6.548,-14.084 6.59,0.008 Z"
         style="fill:#00b9f2;fill-opacity:1;fill-rule:nonzero;stroke:#00b9f2;stroke-width:2.63528;stroke-miterlimit:4;stroke-dasharray:none;stroke-opacity:1"
         transform="matrix(0.13521,0,0,-0.1351,2.487,10.21)"
         id="path4" />
    </g>
    <path
       d="m 0,0 -12.306,-12.321 -12.307,-12.324 c 0.095,-5.334 -0.175,-11.53 -0.079,-16.865 l 6.698,0.008 -0.118,14.371 10.406,10.415 10.406,10.415 13.658,0.039 -0.029,6.238 z"
       style="fill:#8dc63f;fill-opacity:1;fill-rule:nonzero;stroke:#8dc63f;stroke-width:2.63528;stroke-miterlimit:4;stroke-dasharray:none;stroke-opacity:1"
       transform="matrix(0.13521,0,0,-0.1351,5.774,3.949)"
       id="path5" />
    <g
       style="vector-effect:none;fill:#58595b;fill-opacity:1;stroke:#58595b;stroke-width:2.63528;stroke-linecap:butt;stroke-linejoin:miter;stroke-miterlimit:4;stroke-dasharray:none;stroke-dashoffset:0;stroke-opacity:1"
       id="g6">
      <path
         d="m 0,0 c -1.691,1.697 -2.085,2.212 -1.909,2.489 0.501,0.787 17.328,16.751 17.657,16.751 0.396,0 4.51,-4.031 4.51,-4.42 C 20.258,14.417 2.94,-2.14 2.518,-2.14 2.306,-2.14 1.172,-1.178 0,0"
         style="vector-effect:none;fill:#58595b;fill-opacity:1;fill-rule:nonzero;stroke:#58595b;stroke-width:2.63528;stroke-linecap:butt;stroke-linejoin:miter;stroke-miterlimit:4;stroke-dasharray:none;stroke-dashoffset:0;stroke-opacity:1"
         transform="matrix(0.14844,0,0,-0.14831,9.432,3.049)"
         id="path6" />
    </g>
    <g
       style="vector-effect:none;fill:#58595b;fill-opacity:1;stroke:#58595b;stroke-width:2.63528;stroke-linecap:butt;stroke-linejoin:miter;stroke-miterlimit:4;stroke-dasharray:none;stroke-dashoffset:0;stroke-opacity:1"
       id="g7">
      <path
         d="m 0,0 -8.55,8.553 -13.97,0.118 -0.029,6.144 16.7,0.039 9.395,-9.398 c 5.167,-5.168 9.395,-9.551 9.395,-9.738 0,-0.371 -3.806,-4.271 -4.169,-4.271 C 8.65,-8.553 4.703,-4.704 0,0"
         style="vector-effect:none;fill:#58595b;fill-opacity:1;fill-rule:nonzero;stroke:#58595b;stroke-width:2.63528;stroke-linecap:butt;stroke-linejoin:miter;stroke-miterlimit:4;stroke-dasharray:none;stroke-dashoffset:0;stroke-opacity:1"
         transform="matrix(0.13521,0,0,-0.1351,11.818,5.955)"
         id="path7" />
    </g>
    <g
       style="stroke:#58595b;stroke-width:2.63528;stroke-miterlimit:4;stroke-dasharray:none;stroke-opacity:1"
       id="g8">
      <path
         d="m 0,0 -6.919,6.921 v 4.734 l 6.979,6.965 6.979,6.966 2.136,-2.127 c 1.175,-1.17 2.137,-2.28 2.137,-2.468 0,-0.188 -2.557,-2.898 -5.68,-6.022 L -0.047,9.286 5.744,3.479 C 8.93,0.283 11.536,-2.413 11.536,-2.519 11.536,-2.8 7.441,-6.924 7.16,-6.924 7.028,-6.924 3.806,-3.809 0,0"
         style="fill:#58595b;fill-opacity:1;fill-rule:nonzero;stroke:#58595b;stroke-width:2.63528;stroke-miterlimit:4;stroke-dasharray:none;stroke-opacity:1"
         transform="matrix(0.13521,0,0,-0.1351,10.264,10.858)"
         id="path8" />
    </g>
    <g
       style="stroke:#58595b;stroke-width:2.63528;stroke-miterlimit:4;stroke-dasharray:none;stroke-opacity:1"
       id="g9">
      <path
         stroke="none"
         d="M 0.311,-1.674 0.161,7.13 12.463,7.579 c 5.897,5.962 11.519,12.298 17.488,18.188 1.403,-0.796 5.885,-6.108 5.885,-6.108 0,0 -12.107,-14.58 -18.736,-21.31"
         style="fill:#58595b;fill-opacity:1;fill-rule:nonzero;stroke:none;stroke-width:2.63528;stroke-miterlimit:4;stroke-dasharray:none;stroke-opacity:1"
         transform="matrix(0.13521,0,0,-0.1351,8.636,15.723)"
         id="path9" />
    </g>
  </g>
</svg>
