<svg xmlns="http://www.w3.org/2000/svg" width="24" height="24" viewBox="0 0 48 48"><path fill="#E91E63" d="M29.563 13.563 40 24c.375.344.855 3.186.855 4.886 0 .987-.196 2.312-.406 3.712-.22 1.483-.449 3.588-.449 4.832A2.573 2.573 0 0 0 42.57 40c1.42 0 2.43-1.43 2.43-2.43l-.001-9.353c.125-6.9-9.513-12.202-15.436-14.654z"/><path fill="#CFD8DC" d="M22 6 5.028 22.285C4.344 22.972 4 23.915 4 24.855c0 .943.344 1.889 1.028 2.574L18.571 40.97c.685.686 1.542 1.03 2.573 1.03.941 0 1.885-.344 2.571-1.027L40 24 22 6z"/><path fill="#546E7A" d="M25 20.002s-9.347-.501-13.072-2.374c-1.747-.877-2.926-2.056-2.926-3.626l-.006-.105c0-.004.021-.509.581-1.127.78-.86 2.853-2.196 8.104-2.626l2.209-2.12c-5.928.165-9.896 1.311-11.794 3.402-1.07 1.179-1.108 2.287-1.095 2.604.012 2.269 1.406 3.889 3.413 5.051C15.262 21.886 25 22.002 25 22.002v-2z"/></svg>