<svg xmlns="http://www.w3.org/2000/svg" width="24" height="24" viewBox="0 0 48 48"><path fill="#eee" d="M40 8H8a3 3 0 0 0-3 3v26a3 3 0 0 0 3 3h32a3 3 0 0 0 3-3V11a3 3 0 0 0-3-3z"/><path fill="#29b6f6" d="M38 13H10v22h28V13z"/><path fill="#4fc3f7" d="M38 35V18.13c-.32-.09-.65-.13-1-.13-.4 0-.79.08-1.16.19-.27-.27-.57-.5-.91-.69-.57-.32-1.23-.5-1.93-.5-.71 0-1.37.18-1.94.51-.61.34-1.12.85-1.48 1.45-.7-.59-1.59-.96-2.58-.96-.5 0-.97.1-1.41.27-.65-1.34-2-2.27-3.59-2.27-1.46 0-2.73.79-3.42 1.96-.7-.59-1.59-.96-2.58-.96-.69 0-1.33.19-1.9.5A3.96 3.96 0 0 0 11 16c-.35 0-.68.04-1 .13V35h28z"/><path fill="#81d4fa" d="M38 35H10V22.35c.45-.23.96-.35 1.5-.35.43 0 .85.08 1.23.23.29.11.55.25.8.43 0 0 .28.29.69.66a3.513 3.513 0 0 1 2.28-2.18c.32-.09.65-.14 1-.14 1.18 0 2.22.59 2.85 1.5.48-.32 1.04-.5 1.65-.5.41 0 .79.08 1.14.23.73-.76 1.73-1.23 2.86-1.23 1.39 0 2.61.71 3.32 1.78.6-.49 1.35-.78 2.18-.78.98 0 1.86.4 2.5 1.05.16-.02.33-.05.5-.05.47 0 .92.1 1.33.26.54-.64 1.3-1.1 2.17-1.22V35z"/><path fill="#66bb6a" d="M38 35H28l5.89-8.42c.54-.77 1.68-.77 2.22 0l1.89 2.7V35z"/><path fill="#4caf50" d="M34.4 35H17.6l7.29-10.42c.54-.77 1.68-.77 2.22 0L34.4 35z"/><path fill="#43a047" d="M26.2 35H10v-8.86l3.89-5.56c.54-.77 1.68-.77 2.22 0L26.2 35z"/><circle cx="33" cy="18" r="2" fill="#fff176"/><path fill="#546e7a" d="M40 9c1.103 0 2 .897 2 2v26c0 1.103-.897 2-2 2H8c-1.103 0-2-.897-2-2V11c0-1.103.897-2 2-2h32m0-2H8c-2.2 0-4 1.8-4 4v26c0 2.2 1.8 4 4 4h32c2.2 0 4-1.8 4-4V11c0-2.2-1.8-4-4-4z"/><path fill="#37474f" d="m3.564 6.394 2.828-2.829 37.972 37.97-2.829 2.829z"/></svg>