<svg xmlns="http://www.w3.org/2000/svg" xml:space="preserve" width="24" height="24" viewBox="0 0 512.019 512.019"><path d="M364.437 223.026 208.373 379.059c-20.781 20.812-54.625 20.812-75.406 0-20.813-20.781-20.813-54.625 0-75.407l156.031-156.063-82.968-82.954L49.997 220.682c-66.657 66.657-66.657 174.705 0 241.345 66.657 66.657 174.72 66.657 241.345 0l156.064-156.032z" style="fill:#da4453"/><path d="m130.623 140.057 82.969 82.969 75.406-75.438-82.968-82.953z" style="fill:#ccd1d9"/><path d="M466.219 219.245a10.65 10.65 0 0 0 3.125-7.562c0-5.891-4.781-10.656-10.656-10.656a10.68 10.68 0 0 0-7.562 3.125l-30.156 30.156a10.61 10.61 0 0 0-3.125 7.546c0 5.891 4.781 10.672 10.656 10.672 2.969 0 5.625-1.203 7.562-3.141zM508.875 264.48a10.6 10.6 0 0 0-7.531-3.125h-42.656a10.6 10.6 0 0 0-7.531 3.125c-4.188 4.172-4.188 10.922 0 15.078 2.062 2.094 4.812 3.125 7.531 3.125h42.656c2.719 0 5.469-1.031 7.531-3.125 4.188-4.156 4.188-10.906 0-15.078M405.875 161.479c-4.156-4.172-10.906-4.172-15.062 0-2.094 2.078-3.125 4.812-3.125 7.547v42.657c0 2.719 1.031 5.469 3.125 7.531a10.6 10.6 0 0 0 15.062 0c2.094-2.062 3.125-4.812 3.125-7.531v-42.657c0-2.735-1.031-5.469-3.125-7.547M307.873 60.868a10.6 10.6 0 0 0 3.126-7.531c0-5.906-4.782-10.672-10.688-10.672-2.938 0-5.594 1.203-7.531 3.125v-.016l-30.156 30.188a10.58 10.58 0 0 0-3.125 7.531c0 5.891 4.781 10.672 10.656 10.672 2.938 0 5.625-1.203 7.531-3.125zM350.531 106.119a10.67 10.67 0 0 0-7.531-3.125h-42.657c-2.75 0-5.469 1.047-7.562 3.125-4.156 4.172-4.156 10.922 0 15.094a10.68 10.68 0 0 0 7.562 3.125H343c2.719 0 5.438-1.047 7.531-3.125 4.156-4.172 4.156-10.922 0-15.094M247.53 3.118c-4.156-4.157-10.906-4.157-15.094 0-2.062 2.094-3.125 4.812-3.125 7.562v42.625c0 2.75 1.062 5.469 3.125 7.562 4.188 4.157 10.938 4.157 15.094 0a10.6 10.6 0 0 0 3.125-7.547V10.665c0-2.734-1.032-5.453-3.125-7.547" style="fill:#aab2bd"/><path d="m447.406 305.995-82.969-82.969-75.439 75.407 82.97 82.97z" style="fill:#ccd1d9"/></svg>