<svg xmlns="http://www.w3.org/2000/svg" width="36" height="36" viewBox="0 0 48 48"><path fill="#4fc3f7" d="M6 39.001v-30c0-2.2 1.8-4 4-4h24c2.2 0 4 1.8 4 4v30c0 2.2-1.8 4-4 4H10c-2.2 0-4-1.8-4-4z" style="fill:#f74f4f;fill-opacity:1"/><path fill="#039be5" d="M12 8.001A2 2 0 1 0 8.001 8 2 2 0 0 0 12 8zm8 0A2 2 0 1 0 16.001 8 2 2 0 0 0 20 8zm8 0A2 2 0 1 0 24.001 8 2 2 0 0 0 28 8zm8 0A2 2 0 1 0 32.001 8 2 2 0 0 0 36 8z" style="fill:#e54003;fill-opacity:1"/><path fill="#cfd8dc" d="M9 8.001v-4c0-.6.4-1 1-1s1 .4 1 1v4c0 .6-.4 1-1 1s-1-.4-1-1zm8 0v-4c0-.6.4-1 1-1s1 .4 1 1v4c0 .6-.4 1-1 1s-1-.4-1-1zm8 0v-4c0-.6.4-1 1-1s1 .4 1 1v4c0 .6-.4 1-1 1s-1-.4-1-1zm8 0v-4c0-.6.4-1 1-1s1 .4 1 1v4c0 .6-.4 1-1 1s-1-.4-1-1z"/><path fill="#ffcc80" d="M41 34v-7.597c0-.908-.309-1.79-.877-2.499l-5.696-7.12a4 4 0 0 0-3.689-1.461L19 17l2 4 7.542 3v10H41z"/><path fill="#f2a86b" d="m23 21.5 7-.5 3 4-1 2.75z"/><path fill="#ffcc80" d="M28.75 41.996 40.033 48 47 35l-8-4H29z"/><path fill="#ffc107" d="m42.67 37.69-1.34 1.62c-.51.62-1.42.7-2.04.19l-.65-.54-2.72-2.24L14.5 19l-.85-2.59-.65-2.16 2.17.39 2.58.61 21.43 17.67 2.69 2.23.61.5c.61.51.7 1.42.19 2.04z"/><path fill="#039be5" d="m42.67 37.69-1.34 1.62c-.51.62-1.42.7-2.04.19l-.65-.54-2.72-2.24L14.5 19l3.25-3.75 21.43 17.67 2.69 2.23.61.5c.61.51.7 1.42.19 2.04z"/><circle cx="20" cy="25" r="3" fill="#ffcc80"/><path fill="#ffcc80" d="m29 31-6.745-8.023-4.992 3.254 7.163 12.74a4.005 4.005 0 0 0 1.614 1.583l2.71 1.442L29 31z"/><path fill="#b0bec5" d="m42.67 37.69-1.34 1.62c-.51.62-1.42.7-2.04.19l-.65-.54-2.72-2.24 3.26-3.8 2.69 2.23.61.5c.61.51.7 1.42.19 2.04z"/><path fill="#e57373" d="m42.67 37.69-1.34 1.62c-.51.62-1.42.7-2.04.19l-.65-.54 3.23-3.81.61.5c.61.51.7 1.42.19 2.04z"/><path fill="#37474f" d="m15.17 14.64-1.52 1.77-.65-2.16z"/><path fill="#ffebee" d="M18.69 26.237a1.807 1.807 0 1 1 3.143-1.79c.496.866-2.648 2.658-3.143 1.79"/></svg>