<svg xmlns="http://www.w3.org/2000/svg" width="24" height="24" viewBox="0 0 48 48"><path fill="#3f51b5" d="M23 8h15v4H23z"/><circle cx="17" cy="10" r="7" fill="#2196f3"/><path fill="#ffcc80" d="M32 24.861v-1H20l-.016-14c0-1.105-1.098-2.988-3.098-2.988S14 8.861 14 9.861v23.992l-4.375-4.02c-1.391-1.395-3.668-1.223-4.84.18-1.234 1.395-.926 3.559.313 4.789l5.691 5.695c3.113 3.363 7.773 4.363 10.855 4.363h6.879c5.098 0 9.477-4.059 9.477-9.152V24.86h-6z"/><path fill="#ffcc80" d="M20 30.947c0 1.605 1.352 2.914 3 2.914s3-1.313 3-2.914v-7.172c0-1.605-1.352-2.914-3-2.914s-3 1.309-3 2.914v7.172zm6 0c0 1.605 1.352 2.914 3 2.914s3-1.313 3-2.914v-7.172c0-1.605-1.352-2.914-3-2.914s-3 1.309-3 2.914v7.172zm6-.008c0 1.602 1.352 2.914 3 2.914s3-1.313 3-2.914v-6.164c0-1.605-1.352-2.914-3-2.914s-3 1.309-3 2.914v6.164z"/><path fill="#ffebee" d="M14.903 9.971c.012-1.172.914-2.109 2.023-2.098 1.102.012 1.988.973 1.977 2.141-.012 1.175-4.012 1.128-4-.043m-9.004 23.98a2.259 2.259 0 0 1-.176-3.184c.832-.922 2.258-1 3.18-.168.925.833-2.079 4.184-3.004 3.352"/><path fill="#3f51b5" d="m44 10-6-6v12z"/></svg>