<svg xmlns="http://www.w3.org/2000/svg" width="32" height="32" viewBox="0 0 48 48"><path fill="#90caf9" d="M40 45H8V3h22l10 10z"/><path fill="#e1f5fe" d="M38.5 14H29V4.5z"/><path fill="#1976d2" d="M16 21h17v2H16zm0 4h13v2H16zm14.06 4c-.68.6-1.28 1.27-1.81 2H16v-2h14.06zm-2.98 4c-.29.64-.53 1.31-.7 2H16v-2h11.08z"/><path fill="#43a047" d="M48 38c0 5.523-4.478 10-10 10-5.523 0-10-4.477-10-10s4.477-10 10-10c5.522 0 10 4.477 10 10"/><path fill="#fff" d="M36 32h4v12h-4z"/><path fill="#fff" d="M32 36h12v4H32z"/></svg>