<svg xmlns="http://www.w3.org/2000/svg" xmlns:xlink="http://www.w3.org/1999/xlink" viewBox="0,0,256,256" width="32px" height="32px"><g fill="none" fill-rule="nonzero" stroke="none" stroke-width="1" stroke-linecap="butt" stroke-linejoin="miter" stroke-miterlimit="10" stroke-dasharray="" stroke-dashoffset="0" font-family="none" font-weight="none" font-size="none" text-anchor="none" style="mix-blend-mode: normal"><g transform="scale(2,2)"><path d="M12.8,114.8l23.9,-57.6v0c20,5.2 28.5,13.7 33.7,33.7v0z" fill="#ffffff"></path><path d="M12.8,114.8l23.9,-57.6v0c20,5.2 28.5,13.7 33.7,33.7v0z" fill="#ffffff"></path><path d="M59.1,68.5c-16.9,-13.6 -34.4,19.1 -42.2,36.4l-4.1,9.9l57.6,-23.9c-2.6,-10 -6,-17.1 -11.3,-22.4z" fill="#9dd0fc"></path><path d="M66.7,80l-52.7,32l-1.2,2.8l57.6,-23.9c-1.1,-4.1 -2.3,-7.7 -3.7,-10.9z" fill="#4057f9"></path><path d="M12.8,117.8c-0.8,0 -1.5,-0.3 -2.1,-0.9c-0.9,-0.9 -1.1,-2.1 -0.6,-3.3l19.5,-47c0.6,-1.5 2.4,-2.3 3.9,-1.6c1.5,0.6 2.3,2.4 1.6,3.9l-16.7,40.3l48.4,-20.1c-4.5,-13 -17.8,-25.7 -30.8,-29c-1.6,-0.4 -2.6,-2.1 -2.2,-3.7c0.4,-1.6 2.1,-2.6 3.7,-2.2c16,4.1 31.7,19.9 35.8,35.8c0.4,1.4 -0.4,3 -1.8,3.5l-57.5,24.1c-0.4,0.2 -0.8,0.2 -1.2,0.2zM63.5,56c-0.5,0 -0.9,-0.1 -1.3,-0.3c-1.5,-0.7 -2.1,-2.5 -1.3,-4c5.4,-10.7 5.4,-23.4 0,-34.1c-0.7,-1.5 -0.1,-3.3 1.3,-4c1.5,-0.7 3.3,-0.1 4,1.3c6.2,12.4 6.2,27.1 0,39.5c-0.5,1 -1.6,1.6 -2.7,1.6zM74.7,67.1c-1.1,0 -2.2,-0.6 -2.7,-1.7c-0.7,-1.5 -0.1,-3.3 1.3,-4c12.4,-6.2 27.1,-6.2 39.5,0c1.5,0.7 2.1,2.5 1.3,4c-0.7,1.5 -2.5,2.1 -4,1.3c-10.7,-5.3 -23.4,-5.3 -34.1,0c-0.4,0.3 -0.9,0.4 -1.3,0.4zM50.4,48.5c-1.6,0 -2.9,-1.2 -3,-2.8c-0.2,-2.6 -1.3,-5 -3.1,-6.8c-1.2,-1.2 -1.2,-3.1 0,-4.2c1.2,-1.2 3.1,-1.2 4.2,0c2.8,2.8 4.6,6.6 4.9,10.6c0.1,1.7 -1.1,3.1 -2.8,3.2c-0.1,0 -0.1,0 -0.2,0z" fill="#444b54"></path><path d="M34.4,32c-1.7,0 -3,-1.3 -3,-3c0,-1.7 1.3,-3 3,-3v0c1.7,0 3,1.3 3,3c0,1.7 -1.3,3 -3,3z" fill="#659ec9"></path><path d="M92.4,97.1c-1.7,0 -3,-1.3 -3,-3c0,-1.7 1.3,-3 3,-3v0c1.7,0 3,1.3 3,3c0,1.6 -1.3,3 -3,3z" fill="#4057f9"></path><path d="M81.8,28.5c-1.7,0 -3,-1.3 -3,-3c0,-1.7 1.3,-3 3,-3v0c1.7,0 3,1.3 3,3c0,1.7 -1.4,3 -3,3z" fill="#ff697b"></path><path d="M57,36.2c-1.7,0 -3,-1.3 -3,-3c0,-1.7 1.3,-3 3,-3v0c1.7,0 3,1.3 3,3c0,1.7 -1.3,3 -3,3z" fill="#8fe5b5"></path><g fill="#444b54"><path d="M79.7,54.6c-1.7,0 -3,-1.3 -3,-3c0,-1.7 1.3,-3 3,-3v0c1.7,0 3,1.3 3,3c0,1.7 -1.4,3 -3,3z"></path></g><g fill="#06a18c"><path d="M95.9,49.7c-1.7,0 -3,-1.3 -3,-3c0,-1.7 1.3,-3 3,-3v0c1.7,0 3,1.3 3,3c0,1.7 -1.3,3 -3,3z"></path></g><g fill="#f967f9"><path d="M112.2,80.1c-1.7,0 -3,-1.3 -3,-3c0,-1.7 1.3,-3 3,-3v0c1.7,0 3,1.3 3,3c0,1.6 -1.3,3 -3,3z"></path></g><g fill="#444b54"><path d="M90.9,84.2c-0.8,0 -1.5,-0.3 -2.1,-0.9c-1.8,-1.8 -4.2,-2.9 -6.8,-3.1c-1.7,-0.1 -2.9,-1.6 -2.8,-3.2c0.1,-1.7 1.6,-2.9 3.2,-2.8c4,0.3 7.8,2 10.6,4.9c1.2,1.2 1.2,3.1 0,4.2c-0.6,0.6 -1.4,0.9 -2.1,0.9z"></path></g></g></g></svg>