<svg xmlns="http://www.w3.org/2000/svg" width="32" height="32" viewBox="0 0 48 48"><path fill="#455A64" d="M32 6h-8c0 1.104-1 3-3 3s-3-1.896-3-3h-8a4 4 0 0 0-4 4v30a4 4 0 0 0 4 4h22a4 4 0 0 0 4-4V10a4 4 0 0 0-4-4"/><path fill="#FFF" d="M32 41H10a1 1 0 0 1-1-1V10a1 1 0 0 1 1-1h22a1 1 0 0 1 1 1v30a1 1 0 0 1-1 1z"/><path fill="#90A4AE" d="M23 6a2 2 0 1 1-4 0h-7v4a2 2 0 0 0 2 2h14a2 2 0 0 0 2-2V6h-7z"/><path fill="#90A4AE" d="M21 2c-2.206 0-4 1.794-4 4s1.794 4 4 4 4-1.794 4-4-1.794-4-4-4m0 6c-1.103 0-2-.896-2-2s.897-2 2-2 2 .896 2 2-.897 2-2 2"/><path fill="#90CAF9" d="M17 17h25v30H17z"/><path fill="#1976D2" d="M21 37h12v2H21zm0-4h17v2H21zm0-4h12v2H21zm0-4h17v2H21z"/></svg>