<svg xmlns="http://www.w3.org/2000/svg" width="36" height="36" viewBox="0 0 256 256"><defs><linearGradient id="a" x1="-1.565" x2="17.645" y1="31.391" y2="50.601" gradientTransform="scale(5.33333)" gradientUnits="userSpaceOnUse"><stop offset="0" stop-color="#fff"/><stop offset="1" stop-color="#a67bb7"/></linearGradient><linearGradient id="b" x1="8.756" x2="19.756" y1="28.244" y2="39.244" gradientTransform="scale(5.33333)" gradientUnits="userSpaceOnUse"><stop offset="0" stop-color="#030507"/><stop offset="1" stop-color="#0c0d0e"/></linearGradient><linearGradient id="c" x1="11.694" x2="30.904" y1="18.132" y2="37.342" gradientTransform="scale(5.33333)" gradientUnits="userSpaceOnUse"><stop offset="0" stop-color="#fff" style="stop-color:#f5f5f5;stop-opacity:1"/><stop offset="1" stop-color="#2f1f1a"/></linearGradient><linearGradient id="d" x1="-56.673" x2="242.165" y1="502.038" y2="800.875" gradientTransform="rotate(45 167.536 88.464)scale(5.33333)" gradientUnits="userSpaceOnUse"><stop offset="0" stop-color="#fff"/><stop offset="1" stop-color="#a67bb7"/></linearGradient></defs><path stroke="#000" stroke-linejoin="round" stroke-width="16" d="M53.042 232.3a8.437 8.437 0 0 1-10.065 1.41l-22.633-12.577a8.44 8.44 0 0 1-1.87-13.348l17.33-17.33L32 186.666l16-16 18.667-40 24-24 87.53-87.53c4.165-4.166 10.919-4.166 15.085 0l43.581 43.582c4.166 4.165 4.166 10.919 0 15.085l-87.53 87.53-24 24-40 18.666-15.69 16.139-4.23-4.21z" style="font-family:none;mix-blend-mode:normal;fill-rule:nonzero;stroke-linecap:butt;stroke-miterlimit:10;stroke-dasharray:none;stroke-dashoffset:0"/><path fill="url(#a)" d="m67.534 217.808-29.542-29.541-19.518 19.518a8.44 8.44 0 0 0 1.87 13.348l22.633 12.576a8.437 8.437 0 0 0 10.065-1.41z" style="font-family:none;mix-blend-mode:normal;fill:#fff;fill-rule:nonzero;stroke:none;stroke-width:5.33333;stroke-linecap:butt;stroke-linejoin:miter;stroke-miterlimit:10;stroke-dasharray:none;stroke-dashoffset:0;fill-opacity:1"/><path fill="url(#b)" d="m101.296 154.507-34.63-23.84-18.666 40-16 16 37.643 37.472 15.69-16.14 40-18.666Z" style="font-family:none;mix-blend-mode:normal;fill:url(#b);fill-rule:nonzero;stroke:none;stroke-width:5.33333;stroke-linecap:butt;stroke-linejoin:miter;stroke-miterlimit:10;stroke-dasharray:none;stroke-dashoffset:0"/><path fill="url(#c)" d="m90.667 106.667-24 24 58.666 58.666 24-24-22.717-34.038z" style="font-family:none;mix-blend-mode:normal;fill:#e2e2e2;fill-rule:nonzero;stroke:none;stroke-width:5.33333;stroke-linecap:butt;stroke-linejoin:miter;stroke-miterlimit:10;stroke-dasharray:none;stroke-dashoffset:0;fill-opacity:1"/><path fill="url(#d)" d="m193.282 19.137 43.581 43.582c4.166 4.165 4.166 10.919 0 15.084l-87.53 87.53-58.666-58.666 87.53-87.53c4.165-4.166 10.919-4.166 15.085 0z" style="font-family:none;mix-blend-mode:normal;fill:url(#d);fill-rule:nonzero;stroke:none;stroke-width:5.33333;stroke-linecap:butt;stroke-linejoin:miter;stroke-miterlimit:10;stroke-dasharray:none;stroke-dashoffset:0"/></svg>