<svg xmlns="http://www.w3.org/2000/svg" width="12" height="12" viewBox="0 0 48 48"><path fill="#00acc1" d="M24 44C13 44 4 35 4 24S13 4 24 4s20 9 20 20-9 20-20 20z"/><path fill="#00bcd4" d="M27.999 41.514a1 1 0 0 1-.234-1.972 15.911 15.911 0 0 0 11.77-11.776 1 1 0 0 1 1.944.469 17.9 17.9 0 0 1-13.244 13.251 1.008 1.008 0 0 1-.236.028z"/><path fill="#26c6da" d="M19.43 8.57c-1.407-1.407-4.98-.117-7.979 2.882-2.999 2.999-4.289 6.571-2.882 7.979 1.407 1.407 4.98.117 7.979-2.882 3-3 4.29-6.572 2.882-7.979z"/></svg>