<svg xmlns="http://www.w3.org/2000/svg" width="24" height="24" viewBox="0 0 48 48"><path fill="#81D4FA" d="M28 7.129V9.15c7.327.983 13 7.258 13 14.85s-5.673 13.867-13 14.851v2.021c8.433-.995 15-8.176 15-16.872S36.433 8.123 28 7.129"/><path fill="#546E7A" d="M14 32H7a2 2 0 0 1-2-2V18a2 2 0 0 1 2-2h7v16z"/><path fill="#78909C" d="M26 42 14 32V16L26 6z"/><path fill="#03A9F4" d="M28 17.295v2.129c1.763.774 3 2.531 3 4.576s-1.237 3.803-3 4.576v2.129c2.887-.863 5-3.54 5-6.705 0-3.164-2.113-5.842-5-6.705"/><path fill="#4FC3F7" d="M28 12.181v2.021c4.559.93 8 4.97 8 9.799 0 4.83-3.441 8.869-8 9.799v2.021c5.666-.957 10-5.887 10-11.82 0-5.936-4.334-10.863-10-11.82"/></svg>