<svg xmlns="http://www.w3.org/2000/svg" width="32" height="32" viewBox="0 0 48 48"><path fill="#ffb74d" d="M44.505 21c-4.15 7.788-11.727 13-20.387 13-8.641 0-16.205-5.191-20.361-12.951V21c4.15-7.788 11.727-13 20.387-13 8.641 0 16.205 5.191 20.361 12.951V21z"/><path fill="none" stroke="#795548" stroke-linecap="round" stroke-linejoin="round" stroke-miterlimit="10" stroke-width="2" d="M24 35v8m-7.958-10.25L12 41M9.208 28.375 3 35m29.335-1.901L36 41m3-12 6 6m-21 0v8m-7.958-10.25L12 41M9.208 28.375 3 35m29.335-1.901L36 41m3-12 6 6m-.495-14.049V21c-4.15 7.788-11.727 13-20.387 13-8.641 0-16.205-5.191-20.361-12.951V21"/></svg>