<svg xmlns="http://www.w3.org/2000/svg" width="28" height="28" viewBox="0 0 64 64"><radialGradient id="a" cx="-1176.213" cy="32.617" r="19.951" gradientTransform="matrix(-1 0 0 1 -1146 -2)" gradientUnits="userSpaceOnUse"><stop offset="0" stop-color="#f4e9c3"/><stop offset=".219" stop-color="#f8eecd"/><stop offset=".644" stop-color="#fdf4dc"/><stop offset="1" stop-color="#fff6e1"/></radialGradient><path fill="url(#a)" d="M60.002 55a4 4 0 0 0 0 8 4 4 0 0 0 0-8z"/><radialGradient id="b" cx="-1177.501" cy="33.851" r="23.895" gradientTransform="matrix(-1 0 0 1 -1146 -2)" gradientUnits="userSpaceOnUse"><stop offset="0" stop-color="#f4e9c3"/><stop offset=".219" stop-color="#f8eecd"/><stop offset=".644" stop-color="#fdf4dc"/><stop offset="1" stop-color="#fff6e1"/></radialGradient><path fill="url(#b)" d="M19.002 14.5a6.5 6.5 0 0 0-6.5-6.5h-8c-2 0-3.6-1.67-3.5-3.69.1-1.89 1.8-3.31 3.7-3.31h51.8a3.5 3.5 0 0 1 3.5 3.5v.01c0 1.87-1.46 3.39-3.31 3.49-.06.01-.12.01-.18.01l-.51-.01a6 6 0 1 0 0 12h3.12a3.88 3.88 0 0 1 3.88 3.88v.24a3.88 3.88 0 0 1-3.88 3.88h-18.12L41 42h16.502a4.507 4.507 0 0 1 4.48 4.944C61.761 49.283 59.661 51 57.312 51h-9.31a2 2 0 1 0 0 4h1c2.342 0 4.222 2.023 3.979 4.405C52.768 61.484 50.893 63 48.803 63H7.002c-2.342 0-4.222-2.023-3.979-4.405C3.235 56.516 5.11 55 7.2 55h1.802c.16 0 .32-.01.47-.03 3.65-.42 3.16-5.97-.52-5.97h-4.45a4.5 4.5 0 0 1-4.48-4.94c.22-2.34 2.32-4.06 4.67-4.06h.81a5.495 5.495 0 0 0 5.499-5.37c.073-3.096-2.643-5.63-5.74-5.63H4.188c-2.09 0-3.961-1.523-4.165-3.603A3.997 3.997 0 0 1 4.002 21h8.5a6.5 6.5 0 0 0 6.5-6.5z"/><text xml:space="preserve" x="13.775" y="54.762" style="font-size:75.8519px;line-height:1.25;font-family:sans-serif;stroke-width:3.55555556;stroke-dasharray:none;fill:#ff634d;fill-opacity:1"><tspan x="13.775" y="54.762" style="font-style:normal;font-variant:normal;font-weight:700;font-stretch:normal;font-size:75.8519px;font-family:Calibri;-inkscape-font-specification:&quot;Calibri Bold&quot;;stroke-width:3.55555556;stroke-dasharray:none;fill:#ff634d;fill-opacity:1">S</tspan></text><path d="M11.444 27.453h43.321v7.311H11.444z" style="fill:#0069cc;fill-opacity:1;stroke:none;stroke-width:1.28632;stroke-dasharray:none"/></svg>