<svg xmlns="http://www.w3.org/2000/svg" xml:space="preserve" width="48" height="48"><path fill="#3f51b5" d="m47.054 21.583-8 10.74-8-10.74h4.9V4.878h6v16.705z" style="stroke-width:1.09235;fill:#5771ff;fill-opacity:1"/><path d="M.992 33.125h46.173v8.317H.992z" style="fill:#001930;fill-opacity:1;stroke-width:.457364"/><path d="M32.093 58.348v5.344h1.713v-5.344h-1.713m3.426 0v5.344h1.766v-5.344h-1.766m3.48 0v5.344h3.478v-5.344z" style="fill:#010101;stroke:none" transform="matrix(.91769 0 0 1.26758 5.665 -40.123)"/><path d="M30.327 58.348v5.344h1.766v-5.344z" style="fill:#019901;stroke:none" transform="matrix(.91769 0 0 1.26758 5.665 -40.123)"/><path d="M28.614 58.348v5.344h1.713v-5.344z" style="fill:#010101;stroke:none" transform="matrix(.91769 0 0 1.26758 5.665 -40.123)"/><path d="M25.135 58.348v5.344h1.766v-5.344z" style="fill:#ff6501;stroke:none" transform="matrix(.91769 0 0 1.26758 5.665 -40.123)"/><path d="M21.708 58.348v5.344h3.427v-5.344z" style="fill:#010101;stroke:none" transform="matrix(.91769 0 0 1.26758 5.665 -40.123)"/><path d="M19.943 58.348v5.344h1.765v-5.344z" style="fill:#019901;stroke:none" transform="matrix(.91769 0 0 1.26758 5.665 -40.123)"/><path d="M16.516 58.348v5.344h3.427v-5.344z" style="fill:#010101;stroke:none" transform="matrix(.91769 0 0 1.26758 5.665 -40.123)"/><path d="M14.803 58.348v5.344h1.713v-5.344z" style="fill:#ff6501;stroke:none" transform="matrix(.91769 0 0 1.26758 5.665 -40.123)"/><path d="M11.324 58.348v5.344h1.714v-5.344z" style="fill:#010101;stroke:none" transform="matrix(.91769 0 0 1.26758 5.665 -40.123)"/><path d="M9.61 58.348v5.344h1.714v-5.344z" style="fill:#019901;stroke:none" transform="matrix(.91769 0 0 1.26758 5.665 -40.123)"/><path d="M13.035 58.35v5.344h1.767V58.35z" style="fill:#02e119;fill-opacity:1;stroke:none;stroke-width:1.01537" transform="matrix(.91769 0 0 1.26758 5.665 -40.123)"/><path d="M6.132 58.348v5.344h3.479v-5.344z" style="fill:#010101;stroke:none" transform="matrix(.91769 0 0 1.26758 5.665 -40.123)"/><path d="M4.347 58.348v5.344h1.785v-5.344z" style="fill:#02e119;fill-opacity:1;stroke:none;stroke-width:1.02056" transform="matrix(.91769 0 0 1.26758 5.665 -40.123)"/><path d="M-4.252 58.348v5.344h3.478v-5.344h-3.478m5.192 0v5.344h1.713v-5.344z" style="fill:#010101;stroke:none" transform="matrix(.91769 0 0 1.26758 5.665 -40.123)"/><path d="M-.767 58.347v5.343H.946v-5.343z" style="fill:#02e119;fill-opacity:1;stroke:none" transform="matrix(.91769 0 0 1.26758 5.665 -40.123)"/><path d="M2.414 58.34v5.344h1.99v-5.343z" style="fill:#019933;stroke:none;stroke-width:1.07762" transform="matrix(.91769 0 0 1.26758 5.665 -40.123)"/><path d="M26.896 58.343v5.344h1.765v-5.344z" style="fill:#02e119;fill-opacity:1;stroke:none" transform="matrix(.91769 0 0 1.26758 5.665 -40.123)"/><path d="M33.803 58.35v5.344h1.765v-5.343z" style="fill:#019901;stroke:none" transform="matrix(.91769 0 0 1.26758 5.665 -40.123)"/><path d="M37.284 58.352v5.344h1.766v-5.344Zm5.196-.011v5.344h1.766V58.34z" style="fill:#02e119;fill-opacity:1;stroke:none" transform="matrix(.91769 0 0 1.26758 5.665 -40.123)"/></svg>