<svg xmlns="http://www.w3.org/2000/svg" xmlns:xlink="http://www.w3.org/1999/xlink" width="46mm" height="70mm" viewBox="0 0 46 70"><defs><linearGradient id="a" x1="1067.82" x2="778.906" y1="811.704" y2="402.609" gradientTransform="translate(-122.615 3.629)scale(.26458)" gradientUnits="userSpaceOnUse"><stop stop-color="#CD3E70"/><stop offset="1" stop-color="#A534C3"/></linearGradient><linearGradient id="b" x1="1168.32" x2="906.404" y1="336.227" y2="-68.4" gradientTransform="translate(-122.615 3.629)scale(.26458)" gradientUnits="userSpaceOnUse"><stop stop-color="#FBD249"/><stop offset="1" stop-color="#F5A623"/></linearGradient><linearGradient id="c" x1="570" x2="570" y1="956" y2="61" gradientTransform="translate(-122.615 3.629)scale(.26458)" gradientUnits="userSpaceOnUse"><stop stop-color="#963CD7"/><stop offset="1" stop-color="#0482D7"/></linearGradient><linearGradient id="d" x1="290.656" x2="102.289" y1="691.66" y2="748.77" gradientTransform="translate(-122.615 3.629)scale(.26458)" gradientUnits="userSpaceOnUse"><stop stop-color="#1FBE84"/><stop offset="1" stop-color="#0082D5"/></linearGradient><linearGradient xlink:href="#a" id="e" x1="1067.82" x2="778.906" y1="811.704" y2="402.609" gradientTransform="translate(-122.615 3.629)scale(.26458)" gradientUnits="userSpaceOnUse"/><linearGradient xlink:href="#b" id="f" x1="1168.32" x2="906.404" y1="336.227" y2="-68.4" gradientTransform="translate(-122.615 3.629)scale(.26458)" gradientUnits="userSpaceOnUse"/><linearGradient xlink:href="#c" id="g" x1="570" x2="570" y1="956" y2="61" gradientTransform="translate(-122.615 3.629)scale(.26458)" gradientUnits="userSpaceOnUse"/><linearGradient xlink:href="#d" id="h" x1="290.656" x2="102.289" y1="691.66" y2="748.77" gradientTransform="translate(-122.615 3.629)scale(.26458)" gradientUnits="userSpaceOnUse"/></defs><path d="M101.949 3.117c-9.618.39-18.623 4.89-25.99 10.907-8.477 6.88-15.35 15.544-21.226 24.663a163.185 163.185 0 0 0-14.228 27.795 96.778 96.778 0 0 0-1.933 5.428c-2.6-.763-5.737-.375-7.613 1.734-2.327 2.46-2.522 6.778-.055 9.216 1.07 1.188 2.571 1.816 4.043 2.347-7.711 4.46-14.48 10.538-19.691 17.766-5.882 8.064-9.815 17.603-11.235 27.454a86.558 86.558 0 0 0-.691 6.631l53.14-.398c0 2.235-.006 4.47-.008 6.705a56.82 56.82 0 0 0-17.026 4.105c-9.04 3.718-17.293 9.837-23.353 17.522a58.089 58.089 0 0 0-8.138 13.88 58.539 58.539 0 0 0-2.615 7.93c-1.26 4.922-1.806 9.971-1.747 15.026.015.352-.243 1.218.414 1.047 41.719.01 83.438.013 125.157.01-.01-22.122.06-44.245-.091-66.366-.546-11.085-4.179-22.12-10.363-31.441-.575-.677-.56-.974.366-.682 2.963.674 6.282-.818 7.605-3.584 1.378-2.618.76-6.094-1.497-8.027-1.15-1.064-2.644-1.685-4.178-1.936.69-5.765.381-11.603-.243-17.316-1.3-11.03-3.764-21.875-5.846-32.772-.757-4.322-1.63-8.646-1.861-13.036-.037-1.584.006-3.259.58-4.736.718-.81 1.819-.178 2.646.076 3.2 1.278 5.186 4.325 6.674 7.28 1.217 2.203 3.896 3.199 6.294 2.669 2.084-.389 3.92-2.037 4.266-4.169.449-2.276-.116-4.596-.549-6.83-1.485-6.018-5.716-11.259-11.18-14.114-5.69-3.173-12.229-4.75-18.728-4.798l-1.1.014z" style="opacity:1;fill:#fff;fill-opacity:1;stroke-width:.264583;stop-opacity:1" transform="matrix(.35 0 0 .35 -1.165 -1.086)"/><g fill-rule="evenodd" clip-rule="evenodd"><path fill="url(#a)" d="M27.932 256.57h102.923c-.07-57.926-45.707-105.176-102.992-107.832Z" style="opacity:1;fill:url(#e);stroke-width:.264583;stop-opacity:1" transform="matrix(-.18013 0 0 .17994 24.372 23.02)"/><path fill="url(#b)" d="M-104.367 126.731C-98.738 66.727-48.23 19.768 13.248 19.768c62.081 0 112.978 47.887 117.768 108.736z" style="opacity:1;fill:url(#f);stroke-width:.264583;stop-opacity:1" transform="matrix(-.18013 0 0 .17994 24.372 23.02)"/><path fill="url(#c)" d="M28.197 256.57h-133.085V137.903c0-65.244 52.89-118.135 118.136-118.135 5.011 0 9.95.312 14.796.918z" style="opacity:1;fill:url(#g);stroke-width:.264583;stop-opacity:1" transform="matrix(-.18013 0 0 .17994 24.372 23.02)"/><path fill="url(#d)" d="M3.062 256.57h-107.95V148.62c59.587.072 107.878 48.363 107.95 107.95z" style="opacity:1;fill:url(#h);stroke-width:.264583;stop-opacity:1" transform="matrix(-.18013 0 0 .17994 24.372 23.02)"/><path fill="#302b41" d="M-24.852 91.47c7.38 0 13.362-5.982 13.362-13.361 0-7.38-5.983-13.362-13.362-13.362-7.38 0-13.361 5.983-13.361 13.362 0 7.379 5.982 13.361 13.361 13.361z" style="opacity:1;stroke-width:.264583;stop-opacity:1" transform="matrix(-.18013 0 0 .17994 24.372 23.02)"/><path fill="#fafafa" d="M-24.852 84.591a6.482 6.482 0 1 0 0-12.964 6.482 6.482 0 0 0 0 12.964z" style="opacity:1;stroke-width:.264583;stop-opacity:1" transform="matrix(-.18013 0 0 .17994 24.372 23.02)"/></g><g fill="none" stroke-linecap="none" stroke-linejoin="none" stroke-miterlimit="10" stroke-width="none" font-family="none" font-size="none" font-weight="none" style="mix-blend-mode:normal" text-anchor="none"><path fill="#345fc2" d="M12.62 25.602c1.175-5.117 11.21-27.728 25.004-24.558 5.66 1.3 7.145 4.583 7.223 7.501.036 1.349-1.846 1.726-2.442.503-.665-1.364-1.679-2.578-3.182-2.923-4.85-1.114 3.042 16.86.985 25.815z"/><path stroke="#fff" stroke-linecap="round" stroke-linejoin="round" stroke-width="3" d="M24.101 18.648c1.167-1.843 2.451-3.531 3.86-4.978" transform="matrix(.65687 .1509 -.14695 .63965 12.741 -8.04)"/><path fill="#000" d="M38.916 16.474c-1.81.32-3.007 2.006-2.675 3.784.446 2.385.898 5.172.949 7.621l-8.728-2.005c-1.814-.416-3.613.677-4.019 2.444l15.765 3.622c.953-4.15-.23-10.238-1.292-15.465z" opacity=".15"/><path fill="#fff" d="M15.305 18.703a3.482 3.482 0 0 0 .778.286c1.434.329 2.963-.29 3.695-1.606 3.5-6.29 7.564-10.723 11.446-12.483A3.212 3.212 0 0 0 32.959.93c-7.963 1.4-14.251 10.75-17.654 17.773z" opacity=".3"/><path fill="orange" d="m21.552 23.381-1.74.446c-.414.106-.776-.303-.612-.69l.687-1.632-.981-1.492a.506.506 0 0 1 .474-.78l1.795.151 1.133-1.367a.522.522 0 0 1 .905.208l.423 1.724 1.682.648c.4.154.451.691.085.91l-1.534.913-.093 1.768c-.022.42-.526.63-.852.353zm8.689-9.451-1.74.444c-.414.107-.776-.302-.612-.69l.687-1.63-.981-1.492a.506.506 0 0 1 .474-.78l1.795.15 1.133-1.366a.522.522 0 0 1 .906.207l.422 1.725 1.682.647c.4.154.451.692.085.91l-1.534.914-.093 1.767c-.022.421-.526.63-.852.354zm2.978 11.525c.277.122.56.203.84.247.484.077.545.737.078.87a4.82 4.82 0 0 1-2.942-.103c-2.04-.723-3.348-2.772-3.105-4.867.32-2.766 3.005-4.55 5.714-3.928.815.188 1.534.57 2.114 1.086.36.32.04.905-.422.763a3.474 3.474 0 0 0-.24-.065c-1.935-.444-3.852.884-3.972 2.903-.077 1.303.708 2.557 1.935 3.094z"/><path fill="#345fc2" d="m40.605 34.725-29.559-6.79c-.907-.21-1.478-1.094-1.275-1.977.203-.883 1.103-1.43 2.01-1.222l29.559 6.79c.907.21 1.478 1.094 1.275 1.977-.203.884-1.103 1.43-2.01 1.222z"/></g></svg>