/* XPM */
static char * jubler_xpm[] = {
"32 32 383 2",
"  	c None",
". 	c #788BCC",
"+ 	c #8696D5",
"@ 	c #8292DD",
"# 	c #7881D0",
"$ 	c #7388D6",
"% 	c #6777B8",
"& 	c #7084BE",
"* 	c #7086D1",
"= 	c #7081D6",
"- 	c #6976D1",
"; 	c #6679DE",
"> 	c #6374D8",
", 	c #5E70D8",
"' 	c #6472C9",
") 	c #5B6CC0",
"! 	c #7587D1",
"~ 	c #5869C1",
"{ 	c #616FC7",
"] 	c #5770E0",
"^ 	c #4E66D8",
"/ 	c #554A7B",
"( 	c #443E77",
"_ 	c #3E4FC5",
": 	c #4454C6",
"< 	c #556A9D",
"[ 	c #6A6C92",
"} 	c #4F4A64",
"| 	c #384384",
"1 	c #2C3462",
"2 	c #323651",
"3 	c #51262C",
"4 	c #593D60",
"5 	c #5A6ED9",
"6 	c #6077DC",
"7 	c #5B68B4",
"8 	c #85AB1D",
"9 	c #D28A98",
"0 	c #9E676D",
"a 	c #633942",
"b 	c #353D82",
"c 	c #414A98",
"d 	c #454E9C",
"e 	c #4A57BA",
"f 	c #4D5FCE",
"g 	c #5165D4",
"h 	c #525FB5",
"i 	c #83AC17",
"j 	c #80AC11",
"k 	c #E57382",
"l 	c #F25660",
"m 	c #E23335",
"n 	c #C12E2C",
"o 	c #3D3B69",
"p 	c #4051C0",
"q 	c #4352C8",
"r 	c #3F4EBF",
"s 	c #4756BD",
"t 	c #4853B4",
"u 	c #4A53A5",
"v 	c #7D9937",
"w 	c #75AF15",
"x 	c #3F7A28",
"y 	c #EE493F",
"z 	c #EA2D2C",
"A 	c #D92B21",
"B 	c #BC2E1F",
"C 	c #4F3762",
"D 	c #37428E",
"E 	c #3745B1",
"F 	c #3342B3",
"G 	c #39429A",
"H 	c #394298",
"I 	c #404896",
"J 	c #4C6E3A",
"K 	c #61A117",
"L 	c #3A8B23",
"M 	c #D94626",
"N 	c #E2321B",
"O 	c #B92916",
"P 	c #891B17",
"Q 	c #35346E",
"R 	c #2E325E",
"S 	c #24307E",
"T 	c #2A3991",
"U 	c #242E74",
"V 	c #2C3896",
"W 	c #333A7B",
"X 	c #334942",
"Y 	c #37861F",
"Z 	c #2E7A1C",
"` 	c #40841E",
" .	c #48861F",
"..	c #C76114",
"+.	c #2A2326",
"@.	c #2E325A",
"#.	c #202954",
"$.	c #1E2B7F",
"%.	c #202F89",
"&.	c #212F8A",
"*.	c #273282",
"=.	c #2D3769",
"-.	c #2E3C45",
";.	c #2C542E",
">.	c #627519",
",.	c #829113",
"'.	c #568820",
").	c #518B29",
"!.	c #3F445D",
"~.	c #333658",
"{.	c #242C69",
"].	c #212C73",
"^.	c #242E76",
"/.	c #27327A",
"(.	c #2C3673",
"_.	c #313553",
":.	c #573641",
"<.	c #C66E24",
"[.	c #F2920A",
"}.	c #EEBC05",
"|.	c #E5D009",
"1.	c #637718",
"2.	c #648132",
"3.	c #46425E",
"4.	c #453E64",
"5.	c #323767",
"6.	c #333668",
"7.	c #413769",
"8.	c #94394C",
"9.	c #C23B40",
"0.	c #EF422C",
"a.	c #EE5A18",
"b.	c #F2A302",
"c.	c #F2C302",
"d.	c #F4D503",
"e.	c #F2B10E",
"f.	c #C46C30",
"g.	c #61AE40",
"h.	c #D8605C",
"i.	c #804867",
"j.	c #7B3A54",
"k.	c #7B374E",
"l.	c #AF3946",
"m.	c #E63D37",
"n.	c #EC4C27",
"o.	c #EC421F",
"p.	c #EC5610",
"q.	c #EEA902",
"r.	c #EFC602",
"s.	c #F1D001",
"t.	c #F2D501",
"u.	c #B29210",
"v.	c #368B1E",
"w.	c #437821",
"x.	c #D37B22",
"y.	c #F3533E",
"z.	c #D9433B",
"A.	c #DE3D31",
"B.	c #E03931",
"C.	c #D8352B",
"D.	c #DB3222",
"E.	c #E23219",
"F.	c #E14011",
"G.	c #E76B03",
"H.	c #E79602",
"I.	c #E7AF01",
"J.	c #ECC001",
"K.	c #EBBE02",
"L.	c #D8A209",
"M.	c #988F0E",
"N.	c #346F17",
"O.	c #E1B712",
"P.	c #EE471A",
"Q.	c #E73623",
"R.	c #DF2F1F",
"S.	c #D62F1F",
"T.	c #D02A1A",
"U.	c #D83011",
"V.	c #D4370A",
"W.	c #DA5202",
"X.	c #DC6802",
"Y.	c #DC9202",
"Z.	c #E4AF01",
"`.	c #E6B301",
" +	c #E8A702",
".+	c #DD9604",
"++	c #8E860A",
"@+	c #285C16",
"#+	c #CCAC09",
"$+	c #EC6110",
"%+	c #E23416",
"&+	c #D23012",
"*+	c #AD2B17",
"=+	c #BA2E0F",
"-+	c #C7370B",
";+	c #D03904",
">+	c #CF5702",
",+	c #D56802",
"'+	c #D97802",
")+	c #DC9601",
"!+	c #D99901",
"~+	c #DB8602",
"{+	c #E1A102",
"]+	c #8D7408",
"^+	c #204D15",
"/+	c #285019",
"(+	c #B2A90C",
"_+	c #EA7E06",
":+	c #E2510A",
"<+	c #CB2C12",
"[+	c #AB2515",
"}+	c #AA2213",
"|+	c #C02610",
"1+	c #C4310B",
"2+	c #CA3705",
"3+	c #CC6D01",
"4+	c #D58101",
"5+	c #D38601",
"6+	c #CD7402",
"7+	c #CA6E02",
"8+	c #CA6F04",
"9+	c #8B4713",
"0+	c #223D14",
"a+	c #234713",
"b+	c #94791F",
"c+	c #E9A503",
"d+	c #E15409",
"e+	c #D2370B",
"f+	c #B62611",
"g+	c #AA2510",
"h+	c #B62D0B",
"i+	c #B63806",
"j+	c #B43F05",
"k+	c #BE5702",
"l+	c #BF6502",
"m+	c #C26002",
"n+	c #C45902",
"o+	c #BC4304",
"p+	c #B0240B",
"q+	c #6B3A13",
"r+	c #1D2F18",
"s+	c #254114",
"t+	c #8D3F1C",
"u+	c #8F6309",
"v+	c #E18002",
"w+	c #D04B05",
"x+	c #C34605",
"y+	c #B6350A",
"z+	c #9F2412",
"A+	c #AB3A0E",
"B+	c #C46003",
"C+	c #C25A02",
"D+	c #BD4C03",
"E+	c #BA4E03",
"F+	c #BC5C04",
"G+	c #AE3709",
"H+	c #7B2E0C",
"I+	c #372513",
"J+	c #41361A",
"K+	c #1D2A16",
"L+	c #232011",
"M+	c #C37E0E",
"N+	c #D15404",
"O+	c #C33908",
"P+	c #AA1E10",
"Q+	c #B52114",
"R+	c #BA2B0F",
"S+	c #BE3C08",
"T+	c #B65B05",
"U+	c #AD3E07",
"V+	c #A42908",
"W+	c #9C320A",
"X+	c #45221D",
"Y+	c #1B1D26",
"Z+	c #1F1717",
"`+	c #332814",
" @	c #182914",
".@	c #3B383F",
"+@	c #984816",
"@@	c #AF410B",
"#@	c #9A2610",
"$@	c #BB1D12",
"%@	c #9B2610",
"&@	c #91280C",
"*@	c #8A310D",
"=@	c #7B2E10",
"-@	c #5D2116",
";@	c #341C1C",
">@	c #14172A",
",@	c #191A28",
"'@	c #2E2322",
")@	c #282532",
"!@	c #1E2237",
"~@	c #482B2A",
"{@	c #5F251D",
"]@	c #461F24",
"^@	c #501F1F",
"/@	c #3E1E1F",
"(@	c #3C1C1C",
"_@	c #221822",
":@	c #131623",
"<@	c #121728",
"[@	c #121828",
"}@	c #171927",
"|@	c #20211E",
"1@	c #211E22",
"2@	c #1A2032",
"3@	c #161B2F",
"4@	c #161C32",
"5@	c #141B33",
"6@	c #131928",
"7@	c #131828",
"8@	c #11172A",
"9@	c #111525",
"0@	c #121524",
"a@	c #131727",
"b@	c #141623",
"c@	c #171822",
"d@	c #2C2519",
"e@	c #293722",
"f@	c #181C21",
"g@	c #15192A",
"h@	c #141621",
"i@	c #121621",
"j@	c #131725",
"k@	c #121624",
"l@	c #121623",
"m@	c #161825",
"n@	c #181926",
"o@	c #191B18",
"p@	c #1A2A13",
"q@	c #317621",
"r@	c #514119",
"s@	c #6E4728",
"t@	c #3F2517",
"u@	c #0C0E14",
"v@	c #0C0D10",
"w@	c #0F1118",
"x@	c #0F111B",
"y@	c #15141C",
"z@	c #1C1B20",
"A@	c #26231F",
"B@	c #1D3014",
"C@	c #1B380D",
"D@	c #6F5F21",
"E@	c #AC4A1C",
"F@	c #45200F",
"G@	c #2E1811",
"H@	c #733C21",
"I@	c #3D4516",
"J@	c #1D4C12",
"K@	c #0F2209",
"L@	c #848793",
"M@	c #727783",
"N@	c #393D3D",
"O@	c #151518",
"P@	c #21242B",
"Q@	c #5C524F",
"R@	c #60583A",
"S@	c #2E4520",
"T@	c #000000",
"U@	c #828190",
"V@	c #656E85",
"W@	c #363B46",
"X@	c #060607",
"Y@	c #383F4C",
"Z@	c #7F8AA1",
"`@	c #81889A",
" #	c #59575C",
".#	c #7D7D88",
"+#	c #555663",
"@#	c #454753",
"##	c #6F7585",
"$#	c #6E7488",
"%#	c #3E3E45",
"&#	c #5F6374",
"*#	c #19191D",
"=#	c #1E1C1F",
"-#	c #37353E",
";#	c #646778",
">#	c #2D2F35",
",#	c #26262D",
"'#	c #37363C",
"                                                                ",
"                . + @ # $ %                                     ",
"            & * = - ; > , ' )                                   ",
"            ! ~ { ] ^ / ( _ : <                                 ",
"            [ } | 1 2 3 4 5 6 7 8                               ",
"            9 0 a b c d e f g h i j                             ",
"          k l m n o p q r s t u v w x                           ",
"          y z A B C D E F G H I J K L                           ",
"          M N O P Q R S T U V W X Y Z `  .                      ",
"            ..  +.@.#.$.%.&.*.=.-.;.>.,.'.).                    ",
"                !.~.{.].^./.(._.:.<.[.}.|.1.2.                  ",
"                  3.4.5.6.7.8.9.0.a.b.c.d.e.f.g.                ",
"                  h.i.j.k.l.m.n.o.p.q.r.s.t.u.v.w.              ",
"                x.y.z.A.B.C.D.E.F.G.H.I.J.K.L.M.N.              ",
"                O.P.Q.R.S.T.U.V.W.X.Y.Z.`. +.+++@+              ",
"                #+$+%+&+*+=+-+;+>+,+'+)+!+~+{+]+^+/+            ",
"                (+_+:+<+[+}+|+1+2+3+4+5+6+7+8+9+0+a+            ",
"                b+c+d+e+f+g+h+i+j+k+l+m+n+o+p+q+r+s+            ",
"                t+u+v+w+x+y+z+A+B+C+D+E+F+G+H+I+J+K+            ",
"                  L+M+N+O+P+Q+R+S+T+U+V+W+X+Y+Z+`+ @            ",
"                    .@+@@@#@$@%@&@*@=@-@;@>@,@'@                ",
"                    )@!@~@{@]@^@/@(@_@:@<@[@}@|@                ",
"                    1@2@3@4@5@6@7@8@9@0@a@b@c@d@                ",
"                      e@f@g@h@i@i@j@k@l@m@n@o@p@                ",
"                      q@r@s@t@u@v@w@x@y@z@A@B@C@                ",
"                        D@E@F@        G@H@I@J@K@                ",
"                      L@M@N@O@        P@Q@R@S@T@                ",
"                      U@V@W@X@        Y@Z@`@ #T@                ",
"                    .#+#@#T@            ##$#%#T@                ",
"                    &#*#=#              -#;#>#                  ",
"                    ,#                    '#                    ",
"                                                                "};
