<svg xmlns="http://www.w3.org/2000/svg" width="940.039" height="941.414" viewBox="0 0 248.719 249.082"><path d="M-281.667 235.59H-385.12c.07-58.131 45.943-105.55 103.524-108.215z" style="fill:#ab30b1;fill-opacity:1;stroke-width:.265735" transform="translate(386.924 11.742)"/><path d="M-148.686 105.29C-154.343 45.07-205.112-2.055-266.906-2.055c-62.402 0-113.56 48.057-118.376 109.123z" style="fill:#efb804;fill-opacity:1;stroke-width:.265735" transform="translate(386.924 11.742)"/><path d="M-281.933 235.59h133.771V116.5c0-65.475-53.163-118.554-118.745-118.554-5.037 0-10 .313-14.872.92z" style="fill:#0066ab;fill-opacity:1;stroke-width:.265735" transform="translate(386.924 11.742)"/><path d="M-256.668 235.59h108.506V127.257c-59.894.072-108.434 48.535-108.506 108.335z" style="fill:#00a96b;fill-opacity:1;stroke-width:.265735" transform="translate(386.924 11.742)"/><path d="M-228.61 69.903c-7.418 0-13.43-6.004-13.43-13.409 0-7.405 6.012-13.409 13.43-13.409 7.417 0 13.43 6.004 13.43 13.409 0 7.405-6.013 13.409-13.43 13.409z" style="stroke-width:.265735;fill:#302b41;fill-opacity:1" transform="translate(386.924 11.742)"/><path d="M-228.61 63c-3.599 0-6.516-2.913-6.516-6.506 0-3.593 2.917-6.505 6.516-6.505 3.598 0 6.515 2.912 6.515 6.505s-2.917 6.505-6.515 6.505z" style="stroke-width:.265735;fill:#fafafa;fill-opacity:1" transform="translate(386.924 11.742)"/></svg>